<?xml version="1.0" encoding="UTF-8" standalone="no"?>
<!DOCTYPE svg PUBLIC "-//W3C//DTD SVG 1.1//EN"
 "http://www.w3.org/Graphics/SVG/1.1/DTD/svg11.dtd">
<!-- Generated by graphviz version 2.38.0 (20140413.2041)
 -->
<!-- Title: %3 Pages: 1 -->
<svg width="450pt" height="569pt"
 viewBox="50.00 0.00 450.00 569.00" xmlns="http://www.w3.org/2000/svg" xmlns:xlink="http://www.w3.org/1999/xlink">
<g id="graph0" class="graph" transform="scale(1 1) rotate(0) translate(4 565)">
<title>%3</title>
<polygon fill="white" stroke="none" points="-4,4 -4,-565 589,-565 589,4 -4,4"/>
<g id="clust1" class="cluster"><title>cluster_/SM_ROOT</title>
<polygon fill="none" stroke="none" points="8,-8 8,-553 459,-553 459,-8 8,-8"/>
</g>
<g id="clust2" class="cluster"><title>cluster_/SM_ROOT/__outcomes__</title>
<path fill="none" stroke="#ffffff" d="M120,-16C120,-16 370,-16 370,-16 376,-16 382,-22 382,-28 382,-28 382,-42 382,-42 382,-48 376,-54 370,-54 370,-54 120,-54 120,-54 114,-54 108,-48 108,-42 108,-42 108,-28 108,-28 108,-22 114,-16 120,-16"/>
</g>
<!-- /SM_ROOT/__proxy__ -->
<g id="node1" class="node"><title>/SM_ROOT/__proxy__</title>
<g id="a_node1"><a xlink:href="/SM_ROOT" xlink:title="SM_ROOT">
<text text-anchor="middle" x="322" y="-526.6" font-family="Times,serif" font-size="18.00">SM_ROOT</text>
</a>
</g>
</g>
<!-- /SM_ROOT/WAIT_FOR_GOAL -->
<g id="node5" class="node"><title>/SM_ROOT/WAIT_FOR_GOAL</title>
<g id="a_node5"><a xlink:href="/SM_ROOT/WAIT_FOR_GOAL" xlink:title="WAIT_FOR_GOAL">
<ellipse fill="none" stroke="#000000" stroke-width="2" cx="322" cy="-440" rx="84.485" ry="18"/>
<text text-anchor="middle" x="322" y="-436.3" font-family="Times,serif" font-size="14.00">WAIT_FOR_GOAL</text>
</a>
</g>
</g>
<!-- /SM_ROOT/__proxy__&#45;&gt;/SM_ROOT/WAIT_FOR_GOAL -->
<g id="edge13" class="edge"><title>/SM_ROOT/__proxy__&#45;&gt;/SM_ROOT/WAIT_FOR_GOAL</title>
<g id="a_edge13"><a xlink:href="/SM_ROOT/__proxy__::/SM_ROOT/WAIT_FOR_GOAL">
<path fill="none" stroke="black" stroke-width="2" d="M322,-516.868C322,-504.217 322,-484.686 322,-468.608"/>
<polygon fill="black" stroke="black" stroke-width="2" points="325.5,-468.157 322,-458.157 318.5,-468.157 325.5,-468.157"/>
</a>
</g>
</g>
<!-- /SM_ROOT:preempted -->
<g id="node2" class="node"><title>/SM_ROOT:preempted</title>
<g id="a_node2"><a xlink:href="/SM_ROOT:preempted" xlink:title="preempted">
<path fill="#fe464f" stroke="#780006" d="M366.667,-46C366.667,-46 315.333,-46 315.333,-46 311.667,-46 308,-42.3333 308,-38.6667 308,-38.6667 308,-31.3333 308,-31.3333 308,-27.6667 311.667,-24 315.333,-24 315.333,-24 366.667,-24 366.667,-24 370.333,-24 374,-27.6667 374,-31.3333 374,-31.3333 374,-38.6667 374,-38.6667 374,-42.3333 370.333,-46 366.667,-46"/>
<text text-anchor="middle" x="341" y="-31.9" font-family="Times,serif" font-size="12.00" fill="#780006">preempted</text>
</a>
</g>
</g>
<!-- /SM_ROOT:aborted -->
<g id="node3" class="node"><title>/SM_ROOT:aborted</title>
<g id="a_node3"><a xlink:href="/SM_ROOT:aborted" xlink:title="aborted">
<path fill="#fe464f" stroke="#780006" d="M264.667,-46C264.667,-46 225.333,-46 225.333,-46 221.667,-46 218,-42.3333 218,-38.6667 218,-38.6667 218,-31.3333 218,-31.3333 218,-27.6667 221.667,-24 225.333,-24 225.333,-24 264.667,-24 264.667,-24 268.333,-24 272,-27.6667 272,-31.3333 272,-31.3333 272,-38.6667 272,-38.6667 272,-42.3333 268.333,-46 264.667,-46"/>
<text text-anchor="middle" x="245" y="-31.9" font-family="Times,serif" font-size="12.00" fill="#780006">aborted</text>
</a>
</g>
</g>
<!-- /SM_ROOT:succeeded -->
<g id="node4" class="node"><title>/SM_ROOT:succeeded</title>
<g id="a_node4"><a xlink:href="/SM_ROOT:succeeded" xlink:title="succeeded">
<path fill="#fe464f" stroke="#780006" d="M174.167,-46C174.167,-46 123.833,-46 123.833,-46 120.167,-46 116.5,-42.3333 116.5,-38.6667 116.5,-38.6667 116.5,-31.3333 116.5,-31.3333 116.5,-27.6667 120.167,-24 123.833,-24 123.833,-24 174.167,-24 174.167,-24 177.833,-24 181.5,-27.6667 181.5,-31.3333 181.5,-31.3333 181.5,-38.6667 181.5,-38.6667 181.5,-42.3333 177.833,-46 174.167,-46"/>
<text text-anchor="middle" x="149" y="-31.9" font-family="Times,serif" font-size="12.00" fill="#780006">succeeded</text>
</a>
</g>
</g>
<!-- /SM_ROOT/WAIT_FOR_GOAL&#45;&gt;/SM_ROOT:preempted -->
<g id="edge2" class="edge"><title>/SM_ROOT/WAIT_FOR_GOAL&#45;&gt;/SM_ROOT:preempted</title>
<g id="a_edge2"><a xlink:href="/SM_ROOT/WAIT_FOR_GOAL:preempted:/SM_ROOT/preempted" xlink:title="preempted">
<path fill="none" stroke="#000000" stroke-width="2" stroke-opacity="0.333333" d="M331.217,-422.09C352.109,-382.68 402.598,-281.073 420,-189 427.433,-149.674 439.077,-125.943 403,-73 396.623,-63.6417 387.025,-56.2806 377.274,-50.6725"/>
<polygon fill="#000000" fill-opacity="0.333333" stroke="#000000" stroke-width="2" stroke-opacity="0.333333" points="378.847,-47.5452 368.364,-46.008 375.6,-53.7468 378.847,-47.5452"/>
</a>
</g>
<g id="a_edge2&#45;label"><a xlink:href="/SM_ROOT/WAIT_FOR_GOAL:preempted:/SM_ROOT/preempted" xlink:title="preempted">
<text text-anchor="middle" x="442" y="-230.9" font-family="Times,serif" font-size="12.00">preempted</text>
</a>
</g>
</g>
<!-- /SM_ROOT/WAIT_FOR_GOAL&#45;&gt;/SM_ROOT/WAIT_FOR_GOAL -->
<g id="edge1" class="edge"><title>/SM_ROOT/WAIT_FOR_GOAL&#45;&gt;/SM_ROOT/WAIT_FOR_GOAL</title>
<g id="a_edge1"><a xlink:href="/SM_ROOT/WAIT_FOR_GOAL:valid:/SM_ROOT/WAIT_FOR_GOAL" xlink:title="valid">
<path fill="none" stroke="black" stroke-width="2" d="M397.308,-448.25C422.41,-448.25 442.493,-445.5 442.493,-440 442.493,-435.273 427.661,-432.578 407.558,-431.913"/>
<polygon fill="black" stroke="black" stroke-width="2" points="407.362,-428.41 397.308,-431.75 407.251,-435.409 407.362,-428.41"/>
</a>
</g>
<g id="a_edge1&#45;label"><a xlink:href="/SM_ROOT/WAIT_FOR_GOAL:valid:/SM_ROOT/WAIT_FOR_GOAL" xlink:title="valid">
<text text-anchor="middle" x="460.493" y="-436.9" font-family="Times,serif" font-size="12.00">valid</text>
</a>
</g>
</g>
<!-- /SM_ROOT/GET_PATH -->
<g id="node7" class="node"><title>/SM_ROOT/GET_PATH</title>
<g id="a_node7"><a xlink:href="/SM_ROOT/GET_PATH" xlink:title="GET_PATH">
<ellipse fill="none" stroke="#000000" stroke-width="2" cx="245" cy="-337" rx="55.4913" ry="18"/>
<text text-anchor="middle" x="245" y="-333.3" font-family="Times,serif" font-size="14.00">GET_PATH</text>
</a>
</g>
</g>
<!-- /SM_ROOT/WAIT_FOR_GOAL&#45;&gt;/SM_ROOT/GET_PATH -->
<g id="edge3" class="edge"><title>/SM_ROOT/WAIT_FOR_GOAL&#45;&gt;/SM_ROOT/GET_PATH</title>
<g id="a_edge3"><a xlink:href="/SM_ROOT/WAIT_FOR_GOAL:invalid:/SM_ROOT/GET_PATH" xlink:title="invalid">
<path fill="none" stroke="black" stroke-width="2" d="M310.479,-421.76C302.685,-410.306 292.023,-395.033 282,-382 276.952,-375.436 271.29,-368.505 265.941,-362.134"/>
<polygon fill="black" stroke="black" stroke-width="2" points="268.545,-359.792 259.405,-354.434 263.208,-364.323 268.545,-359.792"/>
</a>
</g>
<g id="a_edge3&#45;label"><a xlink:href="/SM_ROOT/WAIT_FOR_GOAL:invalid:/SM_ROOT/GET_PATH" xlink:title="invalid">
<text text-anchor="middle" x="310.0" y="-385.4" font-family="Times,serif" font-size="12.00">invalid</text>
</a>
</g>
</g>
<!-- /SM_ROOT/EXE_PATH -->
<g id="node6" class="node"><title>/SM_ROOT/EXE_PATH</title>
<g id="a_node6"><a xlink:href="/SM_ROOT/EXE_PATH" xlink:title="EXE_PATH">
<ellipse fill="none" stroke="#000000" stroke-width="2" cx="115" cy="-234" rx="55.4913" ry="18"/>
<text text-anchor="middle" x="115" y="-230.3" font-family="Times,serif" font-size="14.00">EXE_PATH</text>
</a>
</g>
</g>
<!-- /SM_ROOT/EXE_PATH&#45;&gt;/SM_ROOT:preempted -->
<g id="edge4" class="edge"><title>/SM_ROOT/EXE_PATH&#45;&gt;/SM_ROOT:preempted</title>
<g id="a_edge4"><a xlink:href="/SM_ROOT/EXE_PATH:preempted:/SM_ROOT/preempted" xlink:title="preempted">
<path fill="none" stroke="#000000" stroke-width="2" stroke-opacity="0.333333" d="M122.367,-216.002C133.939,-190.886 158.455,-143.547 191,-113 209.249,-95.8708 270.051,-67.267 308.412,-50.1621"/>
<polygon fill="#000000" fill-opacity="0.333333" stroke="#000000" stroke-width="2" stroke-opacity="0.333333" points="309.915,-53.3243 317.642,-46.0751 307.081,-46.9238 309.915,-53.3243"/>
</a>
</g>
<g id="a_edge4&#45;label"><a xlink:href="/SM_ROOT/EXE_PATH:preempted:/SM_ROOT/preempted" xlink:title="preempted">
<text text-anchor="middle" x="210" y="-127.9" font-family="Times,serif" font-size="12.00">preempted</text>
</a>
</g>
</g>
<!-- /SM_ROOT/EXE_PATH&#45;&gt;/SM_ROOT:succeeded -->
<g id="edge6" class="edge"><title>/SM_ROOT/EXE_PATH&#45;&gt;/SM_ROOT:succeeded</title>
<g id="a_edge6"><a xlink:href="/SM_ROOT/EXE_PATH:succeeded:/SM_ROOT/succeeded" xlink:title="succeeded">
<path fill="none" stroke="#000000" stroke-width="2" stroke-opacity="0.333333" d="M102.865,-216.029C87.6414,-192.527 65.1175,-148.909 79,-113 88.542,-88.3187 110.08,-66.674 126.763,-52.6707"/>
<polygon fill="#000000" fill-opacity="0.333333" stroke="#000000" stroke-width="2" stroke-opacity="0.333333" points="129.365,-55.0687 134.955,-46.0687 124.973,-49.6182 129.365,-55.0687"/>
</a>
</g>
<g id="a_edge6&#45;label"><a xlink:href="/SM_ROOT/EXE_PATH:succeeded:/SM_ROOT/succeeded" xlink:title="succeeded">
<text text-anchor="middle" x="103.5" y="-127.9" font-family="Times,serif" font-size="12.00">succeeded</text>
</a>
</g>
</g>
<!-- /SM_ROOT/RECOVERY -->
<g id="node8" class="node"><title>/SM_ROOT/RECOVERY</title>
<g id="a_node8"><a xlink:href="/SM_ROOT/RECOVERY" xlink:title="RECOVERY">
<ellipse fill="none" stroke="#000000" stroke-width="2" cx="317" cy="-131" rx="57.6901" ry="18"/>
<text text-anchor="middle" x="317" y="-127.3" font-family="Times,serif" font-size="14.00">RECOVERY</text>
</a>
</g>
</g>
<!-- /SM_ROOT/EXE_PATH&#45;&gt;/SM_ROOT/RECOVERY -->
<g id="edge5" class="edge"><title>/SM_ROOT/EXE_PATH&#45;&gt;/SM_ROOT/RECOVERY</title>
<g id="a_edge5"><a xlink:href="/SM_ROOT/EXE_PATH:aborted:/SM_ROOT/RECOVERY" xlink:title="aborted">
<path fill="none" stroke="black" stroke-width="2" d="M136.666,-217.159C154.031,-204.915 179.325,-188.073 203,-176 224.047,-165.267 248.355,-155.546 269.105,-147.987"/>
<polygon fill="black" stroke="black" stroke-width="2" points="270.433,-151.229 278.668,-144.563 268.074,-144.639 270.433,-151.229"/>
</a>
</g>
<g id="a_edge5&#45;label"><a xlink:href="/SM_ROOT/EXE_PATH:aborted:/SM_ROOT/RECOVERY" xlink:title="aborted">
<text text-anchor="middle" x="225" y="-179.4" font-family="Times,serif" font-size="12.00">aborted</text>
</a>
</g>
</g>
<!-- /SM_ROOT/GET_PATH&#45;&gt;/SM_ROOT:preempted -->
<g id="edge7" class="edge"><title>/SM_ROOT/GET_PATH&#45;&gt;/SM_ROOT:preempted</title>
<g id="a_edge7"><a xlink:href="/SM_ROOT/GET_PATH:preempted:/SM_ROOT/preempted" xlink:title="preempted">
<path fill="none" stroke="#000000" stroke-width="2" stroke-opacity="0.333333" d="M262.434,-319.693C279.171,-303.498 304.561,-277.47 323,-252 345.631,-220.74 341.515,-206.624 365,-176 375.52,-162.282 386.239,-164.911 393,-149 406.22,-117.888 406.19,-102.675 390,-73 385.351,-64.4787 377.809,-57.338 370.021,-51.6739"/>
<polygon fill="#000000" fill-opacity="0.333333" stroke="#000000" stroke-width="2" stroke-opacity="0.333333" points="371.872,-48.7019 361.599,-46.1119 368.015,-54.5432 371.872,-48.7019"/>
</a>
</g>
<g id="a_edge7&#45;label"><a xlink:href="/SM_ROOT/GET_PATH:preempted:/SM_ROOT/preempted" xlink:title="preempted">
<text text-anchor="middle" x="392" y="-179.4" font-family="Times,serif" font-size="12.00">preempted</text>
</a>
</g>
</g>
<!-- /SM_ROOT/GET_PATH&#45;&gt;/SM_ROOT/WAIT_FOR_GOAL -->
<g id="edge8" class="edge"><title>/SM_ROOT/GET_PATH&#45;&gt;/SM_ROOT/WAIT_FOR_GOAL</title>
<g id="a_edge8"><a xlink:href="/SM_ROOT/GET_PATH:aborted:/SM_ROOT/WAIT_FOR_GOAL" xlink:title="aborted">
<path fill="none" stroke="black" stroke-width="2" d="M237.174,-354.886C232.847,-366.894 229.677,-382.963 237,-395 243.61,-405.866 253.866,-414.167 264.997,-420.466"/>
<polygon fill="black" stroke="black" stroke-width="2" points="263.561,-423.663 274.058,-425.1 266.748,-417.431 263.561,-423.663"/>
</a>
</g>
<g id="a_edge8&#45;label"><a xlink:href="/SM_ROOT/GET_PATH:aborted:/SM_ROOT/WAIT_FOR_GOAL" xlink:title="aborted">
<text text-anchor="middle" x="257" y="-385.4" font-family="Times,serif" font-size="12.00">aborted</text>
</a>
</g>
</g>
<!-- /SM_ROOT/GET_PATH&#45;&gt;/SM_ROOT/EXE_PATH -->
<g id="edge9" class="edge"><title>/SM_ROOT/GET_PATH&#45;&gt;/SM_ROOT/EXE_PATH</title>
<g id="a_edge9"><a xlink:href="/SM_ROOT/GET_PATH:succeeded:/SM_ROOT/EXE_PATH" xlink:title="succeeded">
<path fill="none" stroke="black" stroke-width="2" d="M222.299,-320.542C210.425,-312.294 195.747,-301.84 183,-292 168.896,-281.112 153.656,-268.427 141.185,-257.792"/>
<polygon fill="black" stroke="black" stroke-width="2" points="143.298,-254.993 133.429,-251.138 138.74,-260.306 143.298,-254.993"/>
</a>
</g>
<g id="a_edge9&#45;label"><a xlink:href="/SM_ROOT/GET_PATH:succeeded:/SM_ROOT/EXE_PATH" xlink:title="succeeded">
<text text-anchor="middle" x="207.5" y="-282.4" font-family="Times,serif" font-size="12.00">succeeded</text>
</a>
</g>
</g>
<!-- /SM_ROOT/RECOVERY&#45;&gt;/SM_ROOT:preempted -->
<g id="edge10" class="edge"><title>/SM_ROOT/RECOVERY&#45;&gt;/SM_ROOT:preempted</title>
<g id="a_edge10"><a xlink:href="/SM_ROOT/RECOVERY:preempted:/SM_ROOT/preempted" xlink:title="preempted">
<path fill="none" stroke="#000000" stroke-width="2" stroke-opacity="0.333333" d="M321.402,-112.759C325.487,-96.759 331.568,-72.9426 335.871,-56.089"/>
<polygon fill="#000000" fill-opacity="0.333333" stroke="#000000" stroke-width="2" stroke-opacity="0.333333" points="339.32,-56.7264 338.403,-46.1713 332.538,-54.9946 339.32,-56.7264"/>
</a>
</g>
<g id="a_edge10&#45;label"><a xlink:href="/SM_ROOT/RECOVERY:preempted:/SM_ROOT/preempted" xlink:title="preempted">
<text text-anchor="middle" x="359" y="-76.4" font-family="Times,serif" font-size="12.00">preempted</text>
</a>
</g>
</g>
<!-- /SM_ROOT/RECOVERY&#45;&gt;/SM_ROOT:aborted -->
<g id="edge11" class="edge"><title>/SM_ROOT/RECOVERY&#45;&gt;/SM_ROOT:aborted</title>
<g id="a_edge11"><a xlink:href="/SM_ROOT/RECOVERY:aborted:/SM_ROOT/aborted" xlink:title="aborted">
<path fill="none" stroke="#000000" stroke-width="2" stroke-opacity="0.333333" d="M304.052,-113.309C297.694,-105.097 289.929,-95.0417 283,-86 275.059,-75.6381 266.234,-64.0313 259.088,-54.6107"/>
<polygon fill="#000000" fill-opacity="0.333333" stroke="#000000" stroke-width="2" stroke-opacity="0.333333" points="261.665,-52.2164 252.836,-46.3606 256.086,-56.4444 261.665,-52.2164"/>
</a>
</g>
<g id="a_edge11&#45;label"><a xlink:href="/SM_ROOT/RECOVERY:aborted:/SM_ROOT/aborted" xlink:title="aborted">
<text text-anchor="middle" x="301" y="-76.4" font-family="Times,serif" font-size="12.00">aborted</text>
</a>
</g>
</g>
<!-- /SM_ROOT/RECOVERY&#45;&gt;/SM_ROOT/GET_PATH -->
<g id="edge12" class="edge"><title>/SM_ROOT/RECOVERY&#45;&gt;/SM_ROOT/GET_PATH</title>
<g id="a_edge12"><a xlink:href="/SM_ROOT/RECOVERY:succeeded:/SM_ROOT/GET_PATH" xlink:title="succeeded">
<path fill="none" stroke="black" stroke-width="2" d="M305.165,-148.891C294.205,-165.306 278.247,-191.304 269,-216 257.513,-246.678 251.157,-283.931 247.918,-308.712"/>
<polygon fill="black" stroke="black" stroke-width="2" points="244.421,-308.48 246.679,-318.831 251.369,-309.331 244.421,-308.48"/>
</a>
</g>
<g id="a_edge12&#45;label"><a xlink:href="/SM_ROOT/RECOVERY:succeeded:/SM_ROOT/GET_PATH" xlink:title="succeeded">
<text text-anchor="middle" x="293.5" y="-230.9" font-family="Times,serif" font-size="12.00">succeeded</text>
</a>
</g>
</g>

</g>
</svg>
