<?xml version="1.0" encoding="UTF-8" standalone="no"?>
<!DOCTYPE svg PUBLIC "-//W3C//DTD SVG 1.1//EN"
 "http://www.w3.org/Graphics/SVG/1.1/DTD/svg11.dtd">
<!-- Generated by graphviz version 2.38.0 (20140413.2041)
 -->
<!-- Title: %3 Pages: 1 -->
<svg width="672pt" height="466pt"
 viewBox="0.00 0.00 672.00 466.00" xmlns="http://www.w3.org/2000/svg" xmlns:xlink="http://www.w3.org/1999/xlink">
<g id="graph0" class="graph" transform="scale(1 1) rotate(0) translate(4 462)">
<title>%3</title>
<polygon fill="white" stroke="none" points="-4,4 -4,-462 668,-462 668,4 -4,4"/>
<g id="clust1" class="cluster"><title>cluster_/SM_ROOT/NAVIGATION_LOOP/WHOLE_NAVIGATION/NAVIGATION</title>
<polygon fill="none" stroke="none" points="8,-8 8,-450 538,-450 538,-8 8,-8"/>
</g>
<g id="clust2" class="cluster"><title>cluster_/SM_ROOT/NAVIGATION_LOOP/WHOLE_NAVIGATION/NAVIGATION/__outcomes__</title>
<path fill="none" stroke="#ffffff" d="M159,-16C159,-16 409,-16 409,-16 415,-16 421,-22 421,-28 421,-28 421,-42 421,-42 421,-48 415,-54 409,-54 409,-54 159,-54 159,-54 153,-54 147,-48 147,-42 147,-42 147,-28 147,-28 147,-22 153,-16 159,-16"/>
</g>
<!-- /SM_ROOT/NAVIGATION_LOOP/WHOLE_NAVIGATION/NAVIGATION/__proxy__ -->
<g id="node1" class="node"><title>/SM_ROOT/NAVIGATION_LOOP/WHOLE_NAVIGATION/NAVIGATION/__proxy__</title>
<g id="a_node1"><a xlink:href="/SM_ROOT/NAVIGATION_LOOP/WHOLE_NAVIGATION/NAVIGATION" xlink:title="NAVIGATION">
<text text-anchor="middle" x="377" y="-423.6" font-family="Times,serif" font-size="18.00">NAVIGATION</text>
</a>
</g>
</g>
<!-- /SM_ROOT/NAVIGATION_LOOP/WHOLE_NAVIGATION/NAVIGATION/GET_PATH -->
<g id="node7" class="node"><title>/SM_ROOT/NAVIGATION_LOOP/WHOLE_NAVIGATION/NAVIGATION/GET_PATH</title>
<g id="a_node7"><a xlink:href="/SM_ROOT/NAVIGATION_LOOP/WHOLE_NAVIGATION/NAVIGATION/GET_PATH" xlink:title="GET_PATH">
<ellipse fill="none" stroke="#000000" stroke-width="2" cx="377" cy="-337" rx="55.4913" ry="18"/>
<text text-anchor="middle" x="377" y="-333.3" font-family="Times,serif" font-size="14.00">GET_PATH</text>
</a>
</g>
</g>
<!-- /SM_ROOT/NAVIGATION_LOOP/WHOLE_NAVIGATION/NAVIGATION/__proxy__&#45;&gt;/SM_ROOT/NAVIGATION_LOOP/WHOLE_NAVIGATION/NAVIGATION/GET_PATH -->
<g id="edge12" class="edge"><title>/SM_ROOT/NAVIGATION_LOOP/WHOLE_NAVIGATION/NAVIGATION/__proxy__&#45;&gt;/SM_ROOT/NAVIGATION_LOOP/WHOLE_NAVIGATION/NAVIGATION/GET_PATH</title>
<g id="a_edge12"><a xlink:href="/SM_ROOT/NAVIGATION_LOOP/WHOLE_NAVIGATION/NAVIGATION/__proxy__::/SM_ROOT/NAVIGATION_LOOP/WHOLE_NAVIGATION/NAVIGATION/GET_PATH">
<path fill="none" stroke="black" stroke-width="2" d="M377,-413.868C377,-401.217 377,-381.686 377,-365.608"/>
<polygon fill="black" stroke="black" stroke-width="2" points="380.5,-365.157 377,-355.157 373.5,-365.157 380.5,-365.157"/>
</a>
</g>
</g>
<!-- /SM_ROOT/NAVIGATION_LOOP/WHOLE_NAVIGATION/NAVIGATION:preempted -->
<g id="node2" class="node"><title>/SM_ROOT/NAVIGATION_LOOP/WHOLE_NAVIGATION/NAVIGATION:preempted</title>
<g id="a_node2"><a xlink:href="/SM_ROOT/NAVIGATION_LOOP/WHOLE_NAVIGATION/NAVIGATION:preempted" xlink:title="preempted">
<path fill="#fe464f" stroke="#780006" d="M315.667,-46C315.667,-46 264.333,-46 264.333,-46 260.667,-46 257,-42.3333 257,-38.6667 257,-38.6667 257,-31.3333 257,-31.3333 257,-27.6667 260.667,-24 264.333,-24 264.333,-24 315.667,-24 315.667,-24 319.333,-24 323,-27.6667 323,-31.3333 323,-31.3333 323,-38.6667 323,-38.6667 323,-42.3333 319.333,-46 315.667,-46"/>
<text text-anchor="middle" x="290" y="-31.9" font-family="Times,serif" font-size="12.00" fill="#780006">preempted</text>
</a>
</g>
</g>
<!-- /SM_ROOT/NAVIGATION_LOOP/WHOLE_NAVIGATION/NAVIGATION:aborted -->
<g id="node3" class="node"><title>/SM_ROOT/NAVIGATION_LOOP/WHOLE_NAVIGATION/NAVIGATION:aborted</title>
<g id="a_node3"><a xlink:href="/SM_ROOT/NAVIGATION_LOOP/WHOLE_NAVIGATION/NAVIGATION:aborted" xlink:title="aborted">
<path fill="#fe464f" stroke="#780006" d="M405.667,-46C405.667,-46 366.333,-46 366.333,-46 362.667,-46 359,-42.3333 359,-38.6667 359,-38.6667 359,-31.3333 359,-31.3333 359,-27.6667 362.667,-24 366.333,-24 366.333,-24 405.667,-24 405.667,-24 409.333,-24 413,-27.6667 413,-31.3333 413,-31.3333 413,-38.6667 413,-38.6667 413,-42.3333 409.333,-46 405.667,-46"/>
<text text-anchor="middle" x="386" y="-31.9" font-family="Times,serif" font-size="12.00" fill="#780006">aborted</text>
</a>
</g>
</g>
<!-- /SM_ROOT/NAVIGATION_LOOP/WHOLE_NAVIGATION/NAVIGATION:succeeded -->
<g id="node4" class="node"><title>/SM_ROOT/NAVIGATION_LOOP/WHOLE_NAVIGATION/NAVIGATION:succeeded</title>
<g id="a_node4"><a xlink:href="/SM_ROOT/NAVIGATION_LOOP/WHOLE_NAVIGATION/NAVIGATION:succeeded" xlink:title="succeeded">
<path fill="#fe464f" stroke="#780006" d="M213.167,-46C213.167,-46 162.833,-46 162.833,-46 159.167,-46 155.5,-42.3333 155.5,-38.6667 155.5,-38.6667 155.5,-31.3333 155.5,-31.3333 155.5,-27.6667 159.167,-24 162.833,-24 162.833,-24 213.167,-24 213.167,-24 216.833,-24 220.5,-27.6667 220.5,-31.3333 220.5,-31.3333 220.5,-38.6667 220.5,-38.6667 220.5,-42.3333 216.833,-46 213.167,-46"/>
<text text-anchor="middle" x="188" y="-31.9" font-family="Times,serif" font-size="12.00" fill="#780006">succeeded</text>
</a>
</g>
</g>
<!-- /SM_ROOT/NAVIGATION_LOOP/WHOLE_NAVIGATION/NAVIGATION/EXE_PATH -->
<g id="node5" class="node"><title>/SM_ROOT/NAVIGATION_LOOP/WHOLE_NAVIGATION/NAVIGATION/EXE_PATH</title>
<g id="a_node5"><a xlink:href="/SM_ROOT/NAVIGATION_LOOP/WHOLE_NAVIGATION/NAVIGATION/EXE_PATH" xlink:title="EXE_PATH">
<ellipse fill="none" stroke="#000000" stroke-width="2" cx="291" cy="-234" rx="55.4913" ry="18"/>
<text text-anchor="middle" x="291" y="-230.3" font-family="Times,serif" font-size="14.00">EXE_PATH</text>
</a>
</g>
</g>
<!-- /SM_ROOT/NAVIGATION_LOOP/WHOLE_NAVIGATION/NAVIGATION/EXE_PATH&#45;&gt;/SM_ROOT/NAVIGATION_LOOP/WHOLE_NAVIGATION/NAVIGATION:preempted -->
<g id="edge1" class="edge"><title>/SM_ROOT/NAVIGATION_LOOP/WHOLE_NAVIGATION/NAVIGATION/EXE_PATH&#45;&gt;/SM_ROOT/NAVIGATION_LOOP/WHOLE_NAVIGATION/NAVIGATION:preempted</title>
<g id="a_edge1"><a xlink:href="/SM_ROOT/NAVIGATION_LOOP/WHOLE_NAVIGATION/NAVIGATION/EXE_PATH:preempted:/SM_ROOT/NAVIGATION_LOOP/WHOLE_NAVIGATION/NAVIGATION/preempted" xlink:title="preempted">
<path fill="none" stroke="#000000" stroke-width="2" stroke-opacity="0.333333" d="M290.913,-215.862C290.729,-179.567 290.3,-95.0971 290.103,-56.2302"/>
<polygon fill="#000000" fill-opacity="0.333333" stroke="#000000" stroke-width="2" stroke-opacity="0.333333" points="293.602,-56.1256 290.051,-46.1436 286.602,-56.1612 293.602,-56.1256"/>
</a>
</g>
<g id="a_edge1&#45;label"><a xlink:href="/SM_ROOT/NAVIGATION_LOOP/WHOLE_NAVIGATION/NAVIGATION/EXE_PATH:preempted:/SM_ROOT/NAVIGATION_LOOP/WHOLE_NAVIGATION/NAVIGATION/preempted" xlink:title="preempted">
<text text-anchor="middle" x="316" y="-127.9" font-family="Times,serif" font-size="12.00">preempted</text>
</a>
</g>
</g>
<!-- /SM_ROOT/NAVIGATION_LOOP/WHOLE_NAVIGATION/NAVIGATION/ZERO_VELOCITY -->
<g id="node6" class="node"><title>/SM_ROOT/NAVIGATION_LOOP/WHOLE_NAVIGATION/NAVIGATION/ZERO_VELOCITY</title>
<g id="a_node6"><a xlink:href="/SM_ROOT/NAVIGATION_LOOP/WHOLE_NAVIGATION/NAVIGATION/ZERO_VELOCITY" xlink:title="ZERO_VELOCITY">
<ellipse fill="none" stroke="#000000" stroke-width="2" cx="136" cy="-131" rx="81.7856" ry="18"/>
<text text-anchor="middle" x="136" y="-127.3" font-family="Times,serif" font-size="14.00">ZERO_VELOCITY</text>
</a>
</g>
</g>
<!-- /SM_ROOT/NAVIGATION_LOOP/WHOLE_NAVIGATION/NAVIGATION/EXE_PATH&#45;&gt;/SM_ROOT/NAVIGATION_LOOP/WHOLE_NAVIGATION/NAVIGATION/ZERO_VELOCITY -->
<g id="edge3" class="edge"><title>/SM_ROOT/NAVIGATION_LOOP/WHOLE_NAVIGATION/NAVIGATION/EXE_PATH&#45;&gt;/SM_ROOT/NAVIGATION_LOOP/WHOLE_NAVIGATION/NAVIGATION/ZERO_VELOCITY</title>
<g id="a_edge3"><a xlink:href="/SM_ROOT/NAVIGATION_LOOP/WHOLE_NAVIGATION/NAVIGATION/EXE_PATH:success:/SM_ROOT/NAVIGATION_LOOP/WHOLE_NAVIGATION/NAVIGATION/ZERO_VELOCITY" xlink:title="success">
<path fill="none" stroke="black" stroke-width="2" d="M267.459,-217.66C241.441,-200.707 199.315,-173.257 169.78,-154.012"/>
<polygon fill="black" stroke="black" stroke-width="2" points="171.339,-150.85 161.05,-148.323 167.518,-156.715 171.339,-150.85"/>
</a>
</g>
<g id="a_edge3&#45;label"><a xlink:href="/SM_ROOT/NAVIGATION_LOOP/WHOLE_NAVIGATION/NAVIGATION/EXE_PATH:success:/SM_ROOT/NAVIGATION_LOOP/WHOLE_NAVIGATION/NAVIGATION/ZERO_VELOCITY" xlink:title="success">
<text text-anchor="middle" x="241" y="-179.4" font-family="Times,serif" font-size="12.00">success</text>
</a>
</g>
</g>
<!-- /SM_ROOT/NAVIGATION_LOOP/WHOLE_NAVIGATION/NAVIGATION/RECOVERY -->
<g id="node8" class="node"><title>/SM_ROOT/NAVIGATION_LOOP/WHOLE_NAVIGATION/NAVIGATION/RECOVERY</title>
<g id="a_node8"><a xlink:href="/SM_ROOT/NAVIGATION_LOOP/WHOLE_NAVIGATION/NAVIGATION/RECOVERY" xlink:title="RECOVERY">
<ellipse fill="none" stroke="#000000" stroke-width="2" cx="434" cy="-131" rx="57.6901" ry="18"/>
<text text-anchor="middle" x="434" y="-127.3" font-family="Times,serif" font-size="14.00">RECOVERY</text>
</a>
</g>
</g>
<!-- /SM_ROOT/NAVIGATION_LOOP/WHOLE_NAVIGATION/NAVIGATION/EXE_PATH&#45;&gt;/SM_ROOT/NAVIGATION_LOOP/WHOLE_NAVIGATION/NAVIGATION/RECOVERY -->
<g id="edge2" class="edge"><title>/SM_ROOT/NAVIGATION_LOOP/WHOLE_NAVIGATION/NAVIGATION/EXE_PATH&#45;&gt;/SM_ROOT/NAVIGATION_LOOP/WHOLE_NAVIGATION/NAVIGATION/RECOVERY</title>
<g id="a_edge2"><a xlink:href="/SM_ROOT/NAVIGATION_LOOP/WHOLE_NAVIGATION/NAVIGATION/EXE_PATH:aborted:/SM_ROOT/NAVIGATION_LOOP/WHOLE_NAVIGATION/NAVIGATION/RECOVERY" xlink:title="aborted">
<path fill="none" stroke="black" stroke-width="2" d="M313.03,-217.44C337.208,-200.364 376.187,-172.833 403.342,-153.654"/>
<polygon fill="black" stroke="black" stroke-width="2" points="405.56,-156.372 411.709,-147.744 401.522,-150.654 405.56,-156.372"/>
</a>
</g>
<g id="a_edge2&#45;label"><a xlink:href="/SM_ROOT/NAVIGATION_LOOP/WHOLE_NAVIGATION/NAVIGATION/EXE_PATH:aborted:/SM_ROOT/NAVIGATION_LOOP/WHOLE_NAVIGATION/NAVIGATION/RECOVERY" xlink:title="aborted">
<text text-anchor="middle" x="390" y="-179.4" font-family="Times,serif" font-size="12.00">aborted</text>
</a>
</g>
</g>
<!-- /SM_ROOT/NAVIGATION_LOOP/WHOLE_NAVIGATION/NAVIGATION/ZERO_VELOCITY&#45;&gt;/SM_ROOT/NAVIGATION_LOOP/WHOLE_NAVIGATION/NAVIGATION:preempted -->
<g id="edge5" class="edge"><title>/SM_ROOT/NAVIGATION_LOOP/WHOLE_NAVIGATION/NAVIGATION/ZERO_VELOCITY&#45;&gt;/SM_ROOT/NAVIGATION_LOOP/WHOLE_NAVIGATION/NAVIGATION:preempted</title>
<g id="a_edge5"><a xlink:href="/SM_ROOT/NAVIGATION_LOOP/WHOLE_NAVIGATION/NAVIGATION/ZERO_VELOCITY:preempted:/SM_ROOT/NAVIGATION_LOOP/WHOLE_NAVIGATION/NAVIGATION/preempted" xlink:title="preempted">
<path fill="none" stroke="#000000" stroke-width="2" stroke-opacity="0.333333" d="M162.474,-113.841C191.061,-96.3913 236.285,-68.7873 264.491,-51.5704"/>
<polygon fill="#000000" fill-opacity="0.333333" stroke="#000000" stroke-width="2" stroke-opacity="0.333333" points="266.644,-54.357 273.356,-46.1594 262.997,-48.3821 266.644,-54.357"/>
</a>
</g>
<g id="a_edge5&#45;label"><a xlink:href="/SM_ROOT/NAVIGATION_LOOP/WHOLE_NAVIGATION/NAVIGATION/ZERO_VELOCITY:preempted:/SM_ROOT/NAVIGATION_LOOP/WHOLE_NAVIGATION/NAVIGATION/preempted" xlink:title="preempted">
<text text-anchor="middle" x="252" y="-76.4" font-family="Times,serif" font-size="12.00">preempted</text>
</a>
</g>
</g>
<!-- /SM_ROOT/NAVIGATION_LOOP/WHOLE_NAVIGATION/NAVIGATION/ZERO_VELOCITY&#45;&gt;/SM_ROOT/NAVIGATION_LOOP/WHOLE_NAVIGATION/NAVIGATION:succeeded -->
<g id="edge4" class="edge"><title>/SM_ROOT/NAVIGATION_LOOP/WHOLE_NAVIGATION/NAVIGATION/ZERO_VELOCITY&#45;&gt;/SM_ROOT/NAVIGATION_LOOP/WHOLE_NAVIGATION/NAVIGATION:succeeded</title>
<g id="a_edge4"><a xlink:href="/SM_ROOT/NAVIGATION_LOOP/WHOLE_NAVIGATION/NAVIGATION/ZERO_VELOCITY:velocity_published:/SM_ROOT/NAVIGATION_LOOP/WHOLE_NAVIGATION/NAVIGATION/succeeded" xlink:title="velocity_published">
<path fill="none" stroke="#000000" stroke-width="2" stroke-opacity="0.333333" d="M113.904,-113.465C101.421,-102.049 89.9635,-86.5431 99,-73 109.404,-57.4081 127.743,-48.3771 145.081,-43.1505"/>
<polygon fill="#000000" fill-opacity="0.333333" stroke="#000000" stroke-width="2" stroke-opacity="0.333333" points="146.337,-46.4383 155.106,-40.4919 144.543,-39.6722 146.337,-46.4383"/>
</a>
</g>
<g id="a_edge4&#45;label"><a xlink:href="/SM_ROOT/NAVIGATION_LOOP/WHOLE_NAVIGATION/NAVIGATION/ZERO_VELOCITY:velocity_published:/SM_ROOT/NAVIGATION_LOOP/WHOLE_NAVIGATION/NAVIGATION/succeeded" xlink:title="velocity_published">
<text text-anchor="middle" x="144" y="-76.4" font-family="Times,serif" font-size="12.00">velocity_published</text>
</a>
</g>
</g>
<!-- /SM_ROOT/NAVIGATION_LOOP/WHOLE_NAVIGATION/NAVIGATION/GET_PATH&#45;&gt;/SM_ROOT/NAVIGATION_LOOP/WHOLE_NAVIGATION/NAVIGATION:preempted -->
<g id="edge6" class="edge"><title>/SM_ROOT/NAVIGATION_LOOP/WHOLE_NAVIGATION/NAVIGATION/GET_PATH&#45;&gt;/SM_ROOT/NAVIGATION_LOOP/WHOLE_NAVIGATION/NAVIGATION:preempted</title>
<g id="a_edge6"><a xlink:href="/SM_ROOT/NAVIGATION_LOOP/WHOLE_NAVIGATION/NAVIGATION/GET_PATH:preempted:/SM_ROOT/NAVIGATION_LOOP/WHOLE_NAVIGATION/NAVIGATION/preempted" xlink:title="preempted">
<path fill="none" stroke="#000000" stroke-width="2" stroke-opacity="0.333333" d="M331.444,-326.712C254.281,-308.236 100.025,-258.801 36,-149 15.5095,-113.859 49.4563,-88.6584 87,-73 149.428,-46.9629 172.129,-69.3682 238,-54 243.466,-52.7248 249.162,-51.0869 254.694,-49.3199"/>
<polygon fill="#000000" fill-opacity="0.333333" stroke="#000000" stroke-width="2" stroke-opacity="0.333333" points="256.033,-52.5621 264.39,-46.0504 253.796,-45.929 256.033,-52.5621"/>
</a>
</g>
<g id="a_edge6&#45;label"><a xlink:href="/SM_ROOT/NAVIGATION_LOOP/WHOLE_NAVIGATION/NAVIGATION/GET_PATH:preempted:/SM_ROOT/NAVIGATION_LOOP/WHOLE_NAVIGATION/NAVIGATION/preempted" xlink:title="preempted">
<text text-anchor="middle" x="90" y="-179.4" font-family="Times,serif" font-size="12.00">preempted</text>
</a>
</g>
</g>
<!-- /SM_ROOT/NAVIGATION_LOOP/WHOLE_NAVIGATION/NAVIGATION/GET_PATH&#45;&gt;/SM_ROOT/NAVIGATION_LOOP/WHOLE_NAVIGATION/NAVIGATION:aborted -->
<g id="edge7" class="edge"><title>/SM_ROOT/NAVIGATION_LOOP/WHOLE_NAVIGATION/NAVIGATION/GET_PATH&#45;&gt;/SM_ROOT/NAVIGATION_LOOP/WHOLE_NAVIGATION/NAVIGATION:aborted</title>
<g id="a_edge7"><a xlink:href="/SM_ROOT/NAVIGATION_LOOP/WHOLE_NAVIGATION/NAVIGATION/GET_PATH:aborted:/SM_ROOT/NAVIGATION_LOOP/WHOLE_NAVIGATION/NAVIGATION/aborted" xlink:title="aborted">
<path fill="none" stroke="#000000" stroke-width="2" stroke-opacity="0.333333" d="M395.353,-319.777C427.406,-289.905 491.902,-222.499 510,-149 513.826,-133.464 517.134,-127.322 510,-113 492.946,-78.7637 452.896,-58.1315 422.896,-46.9629"/>
<polygon fill="#000000" fill-opacity="0.333333" stroke="#000000" stroke-width="2" stroke-opacity="0.333333" points="423.75,-43.5529 413.155,-43.5321 421.424,-50.1554 423.75,-43.5529"/>
</a>
</g>
<g id="a_edge7&#45;label"><a xlink:href="/SM_ROOT/NAVIGATION_LOOP/WHOLE_NAVIGATION/NAVIGATION/GET_PATH:aborted:/SM_ROOT/NAVIGATION_LOOP/WHOLE_NAVIGATION/NAVIGATION/aborted" xlink:title="aborted">
<text text-anchor="middle" x="519" y="-179.4" font-family="Times,serif" font-size="12.00">aborted</text>
</a>
</g>
</g>
<!-- /SM_ROOT/NAVIGATION_LOOP/WHOLE_NAVIGATION/NAVIGATION/GET_PATH&#45;&gt;/SM_ROOT/NAVIGATION_LOOP/WHOLE_NAVIGATION/NAVIGATION/EXE_PATH -->
<g id="edge8" class="edge"><title>/SM_ROOT/NAVIGATION_LOOP/WHOLE_NAVIGATION/NAVIGATION/GET_PATH&#45;&gt;/SM_ROOT/NAVIGATION_LOOP/WHOLE_NAVIGATION/NAVIGATION/EXE_PATH</title>
<g id="a_edge8"><a xlink:href="/SM_ROOT/NAVIGATION_LOOP/WHOLE_NAVIGATION/NAVIGATION/GET_PATH:success:/SM_ROOT/NAVIGATION_LOOP/WHOLE_NAVIGATION/NAVIGATION/EXE_PATH" xlink:title="success">
<path fill="none" stroke="black" stroke-width="2" d="M362.799,-319.322C348.918,-303.021 327.629,-278.017 311.832,-259.466"/>
<polygon fill="black" stroke="black" stroke-width="2" points="314.37,-257.048 305.222,-251.703 309.04,-261.586 314.37,-257.048"/>
</a>
</g>
<g id="a_edge8&#45;label"><a xlink:href="/SM_ROOT/NAVIGATION_LOOP/WHOLE_NAVIGATION/NAVIGATION/GET_PATH:success:/SM_ROOT/NAVIGATION_LOOP/WHOLE_NAVIGATION/NAVIGATION/EXE_PATH" xlink:title="success">
<text text-anchor="middle" x="358" y="-282.4" font-family="Times,serif" font-size="12.00">success</text>
</a>
</g>
</g>
<!-- /SM_ROOT/NAVIGATION_LOOP/WHOLE_NAVIGATION/NAVIGATION/RECOVERY&#45;&gt;/SM_ROOT/NAVIGATION_LOOP/WHOLE_NAVIGATION/NAVIGATION:preempted -->
<g id="edge9" class="edge"><title>/SM_ROOT/NAVIGATION_LOOP/WHOLE_NAVIGATION/NAVIGATION/RECOVERY&#45;&gt;/SM_ROOT/NAVIGATION_LOOP/WHOLE_NAVIGATION/NAVIGATION:preempted</title>
<g id="a_edge9"><a xlink:href="/SM_ROOT/NAVIGATION_LOOP/WHOLE_NAVIGATION/NAVIGATION/RECOVERY:preempted:/SM_ROOT/NAVIGATION_LOOP/WHOLE_NAVIGATION/NAVIGATION/preempted" xlink:title="preempted">
<path fill="none" stroke="#000000" stroke-width="2" stroke-opacity="0.333333" d="M401.508,-115.956C384.672,-108.095 364.111,-97.5598 347,-86 332.745,-76.3696 318.19,-63.5414 307.356,-53.2901"/>
<polygon fill="#000000" fill-opacity="0.333333" stroke="#000000" stroke-width="2" stroke-opacity="0.333333" points="309.486,-50.4813 299.863,-46.0488 304.621,-55.5149 309.486,-50.4813"/>
</a>
</g>
<g id="a_edge9&#45;label"><a xlink:href="/SM_ROOT/NAVIGATION_LOOP/WHOLE_NAVIGATION/NAVIGATION/RECOVERY:preempted:/SM_ROOT/NAVIGATION_LOOP/WHOLE_NAVIGATION/NAVIGATION/preempted" xlink:title="preempted">
<text text-anchor="middle" x="372" y="-76.4" font-family="Times,serif" font-size="12.00">preempted</text>
</a>
</g>
</g>
<!-- /SM_ROOT/NAVIGATION_LOOP/WHOLE_NAVIGATION/NAVIGATION/RECOVERY&#45;&gt;/SM_ROOT/NAVIGATION_LOOP/WHOLE_NAVIGATION/NAVIGATION:aborted -->
<g id="edge10" class="edge"><title>/SM_ROOT/NAVIGATION_LOOP/WHOLE_NAVIGATION/NAVIGATION/RECOVERY&#45;&gt;/SM_ROOT/NAVIGATION_LOOP/WHOLE_NAVIGATION/NAVIGATION:aborted</title>
<g id="a_edge10"><a xlink:href="/SM_ROOT/NAVIGATION_LOOP/WHOLE_NAVIGATION/NAVIGATION/RECOVERY:aborted:/SM_ROOT/NAVIGATION_LOOP/WHOLE_NAVIGATION/NAVIGATION/aborted" xlink:title="aborted">
<path fill="none" stroke="#000000" stroke-width="2" stroke-opacity="0.333333" d="M425.419,-113.195C417.078,-96.8613 404.429,-72.091 395.721,-55.0378"/>
<polygon fill="#000000" fill-opacity="0.333333" stroke="#000000" stroke-width="2" stroke-opacity="0.333333" points="398.777,-53.3253 391.112,-46.0109 392.543,-56.5087 398.777,-53.3253"/>
</a>
</g>
<g id="a_edge10&#45;label"><a xlink:href="/SM_ROOT/NAVIGATION_LOOP/WHOLE_NAVIGATION/NAVIGATION/RECOVERY:aborted:/SM_ROOT/NAVIGATION_LOOP/WHOLE_NAVIGATION/NAVIGATION/aborted" xlink:title="aborted">
<text text-anchor="middle" x="430" y="-76.4" font-family="Times,serif" font-size="12.00">aborted</text>
</a>
</g>
</g>
<!-- /SM_ROOT/NAVIGATION_LOOP/WHOLE_NAVIGATION/NAVIGATION/RECOVERY&#45;&gt;/SM_ROOT/NAVIGATION_LOOP/WHOLE_NAVIGATION/NAVIGATION/GET_PATH -->
<g id="edge11" class="edge"><title>/SM_ROOT/NAVIGATION_LOOP/WHOLE_NAVIGATION/NAVIGATION/RECOVERY&#45;&gt;/SM_ROOT/NAVIGATION_LOOP/WHOLE_NAVIGATION/NAVIGATION/GET_PATH</title>
<g id="a_edge11"><a xlink:href="/SM_ROOT/NAVIGATION_LOOP/WHOLE_NAVIGATION/NAVIGATION/RECOVERY:success:/SM_ROOT/NAVIGATION_LOOP/WHOLE_NAVIGATION/NAVIGATION/GET_PATH" xlink:title="success">
<path fill="none" stroke="black" stroke-width="2" d="M429.212,-149.137C419.276,-184.695 396.359,-266.716 384.465,-309.282"/>
<polygon fill="black" stroke="black" stroke-width="2" points="381.082,-308.385 381.762,-318.958 387.824,-310.269 381.082,-308.385"/>
</a>
</g>
<g id="a_edge11&#45;label"><a xlink:href="/SM_ROOT/NAVIGATION_LOOP/WHOLE_NAVIGATION/NAVIGATION/RECOVERY:success:/SM_ROOT/NAVIGATION_LOOP/WHOLE_NAVIGATION/NAVIGATION/GET_PATH" xlink:title="success">
<text text-anchor="middle" x="429" y="-230.9" font-family="Times,serif" font-size="12.00">success</text>
</a>
</g>
</g>
<!-- __empty__ -->
<g id="node9" class="node"><title>__empty__</title>
<text text-anchor="middle" x="605" y="-424.3" font-family="Times,serif" font-size="14.00">Path not available.</text>
</g>
</g>
</svg>
