<?xml version="1.0" encoding="UTF-8" standalone="no"?>
<!DOCTYPE svg PUBLIC "-//W3C//DTD SVG 1.1//EN"
 "http://www.w3.org/Graphics/SVG/1.1/DTD/svg11.dtd">
<!-- Generated by graphviz version 2.38.0 (20140413.2041)
 -->
<!-- Title: %3 Pages: 1 -->
<svg width="1113pt" height="264pt"
 viewBox="0.00 0.00 1113.00 264.00" xmlns="http://www.w3.org/2000/svg" xmlns:xlink="http://www.w3.org/1999/xlink">
<g id="graph0" class="graph" transform="scale(1 1) rotate(0) translate(4 260)">
<title>%3</title>
<polygon fill="white" stroke="none" points="-4,4 -4,-260 1109,-260 1109,4 -4,4"/>
<g id="clust1" class="cluster"><title>cluster_/SM_ROOT</title>
<polygon fill="none" stroke="none" points="8,-8 8,-248 979,-248 979,-8 8,-8"/>
</g>
<g id="clust2" class="cluster"><title>cluster_/SM_ROOT/__outcomes__</title>
<path fill="none" stroke="#ffffff" d="M146,-16C146,-16 396,-16 396,-16 402,-16 408,-22 408,-28 408,-28 408,-42 408,-42 408,-48 402,-54 396,-54 396,-54 146,-54 146,-54 140,-54 134,-48 134,-42 134,-42 134,-28 134,-28 134,-22 140,-16 146,-16"/>
</g>
<g id="clust3" class="cluster"><title>cluster_/SM_ROOT/NAVIGATION_LOOP</title>
<path fill="none" stroke="#000000" stroke-width="2" d="M28,-105C28,-105 245,-105 245,-105 251,-105 257,-111 257,-117 257,-117 257,-137 257,-137 257,-143 251,-149 245,-149 245,-149 28,-149 28,-149 22,-149 16,-143 16,-137 16,-137 16,-117 16,-117 16,-111 22,-105 28,-105"/>
</g>
<g id="clust4" class="cluster"><title>cluster_/SM_ROOT/NAVIGATION_TO_CHARGE_WITH_CONTROL</title>
<path fill="none" stroke="#000000" stroke-width="2" d="M531,-105C531,-105 959,-105 959,-105 965,-105 971,-111 971,-117 971,-117 971,-137 971,-137 971,-143 965,-149 959,-149 959,-149 531,-149 531,-149 525,-149 519,-143 519,-137 519,-137 519,-117 519,-117 519,-111 525,-105 531,-105"/>
</g>
<g id="clust5" class="cluster"><title>cluster_/SM_ROOT/CHARGING</title>
<path fill="none" stroke="#000000" stroke-width="2" d="M337,-105C337,-105 439,-105 439,-105 445,-105 451,-111 451,-117 451,-117 451,-137 451,-137 451,-143 445,-149 439,-149 439,-149 337,-149 337,-149 331,-149 325,-143 325,-137 325,-137 325,-117 325,-117 325,-111 331,-105 337,-105"/>
</g>
<!-- /SM_ROOT/__proxy__ -->
<g id="node1" class="node"><title>/SM_ROOT/__proxy__</title>
<g id="a_node1"><a xlink:href="/SM_ROOT" xlink:title="SM_ROOT">
<text text-anchor="middle" x="116" y="-221.6" font-family="Times,serif" font-size="18.00">SM_ROOT</text>
</a>
</g>
</g>
<!-- /SM_ROOT/NAVIGATION_LOOP/__proxy__ -->
<g id="node5" class="node"><title>/SM_ROOT/NAVIGATION_LOOP/__proxy__</title>
<g id="a_node5"><a xlink:href="/SM_ROOT/NAVIGATION_LOOP" xlink:title="NAVIGATION_LOOP">
<text text-anchor="middle" x="116" y="-122.6" font-family="Times,serif" font-size="18.00">NAVIGATION_LOOP</text>
</a>
</g>
</g>
<!-- /SM_ROOT/__proxy__&#45;&gt;/SM_ROOT/NAVIGATION_LOOP/__proxy__ -->
<g id="edge12" class="edge"><title>/SM_ROOT/__proxy__&#45;&gt;/SM_ROOT/NAVIGATION_LOOP/__proxy__</title>
<g id="a_edge12"><a xlink:href="/SM_ROOT/__proxy__::/SM_ROOT/NAVIGATION_LOOP">
<path fill="none" stroke="black" stroke-width="2" d="M116,-211.918C116,-196.442 116,-170.388 116,-151.408"/>
<polygon fill="black" stroke="black" stroke-width="2" points="119.5,-159 116,-149 112.5,-159 119.5,-159"/>
</a>
</g>
</g>
<!-- /SM_ROOT:preempted -->
<g id="node2" class="node"><title>/SM_ROOT:preempted</title>
<g id="a_node2"><a xlink:href="/SM_ROOT:preempted" xlink:title="preempted">
<path fill="#fe464f" stroke="#780006" d="M302.667,-46C302.667,-46 251.333,-46 251.333,-46 247.667,-46 244,-42.3333 244,-38.6667 244,-38.6667 244,-31.3333 244,-31.3333 244,-27.6667 247.667,-24 251.333,-24 251.333,-24 302.667,-24 302.667,-24 306.333,-24 310,-27.6667 310,-31.3333 310,-31.3333 310,-38.6667 310,-38.6667 310,-42.3333 306.333,-46 302.667,-46"/>
<text text-anchor="middle" x="277" y="-31.9" font-family="Times,serif" font-size="12.00" fill="#780006">preempted</text>
</a>
</g>
</g>
<!-- /SM_ROOT:aborted -->
<g id="node3" class="node"><title>/SM_ROOT:aborted</title>
<g id="a_node3"><a xlink:href="/SM_ROOT:aborted" xlink:title="aborted">
<path fill="#fe464f" stroke="#780006" d="M392.667,-46C392.667,-46 353.333,-46 353.333,-46 349.667,-46 346,-42.3333 346,-38.6667 346,-38.6667 346,-31.3333 346,-31.3333 346,-27.6667 349.667,-24 353.333,-24 353.333,-24 392.667,-24 392.667,-24 396.333,-24 400,-27.6667 400,-31.3333 400,-31.3333 400,-38.6667 400,-38.6667 400,-42.3333 396.333,-46 392.667,-46"/>
<text text-anchor="middle" x="373" y="-31.9" font-family="Times,serif" font-size="12.00" fill="#780006">aborted</text>
</a>
</g>
</g>
<!-- /SM_ROOT:succeeded -->
<g id="node4" class="node"><title>/SM_ROOT:succeeded</title>
<g id="a_node4"><a xlink:href="/SM_ROOT:succeeded" xlink:title="succeeded">
<path fill="#fe464f" stroke="#780006" d="M200.167,-46C200.167,-46 149.833,-46 149.833,-46 146.167,-46 142.5,-42.3333 142.5,-38.6667 142.5,-38.6667 142.5,-31.3333 142.5,-31.3333 142.5,-27.6667 146.167,-24 149.833,-24 149.833,-24 200.167,-24 200.167,-24 203.833,-24 207.5,-27.6667 207.5,-31.3333 207.5,-31.3333 207.5,-38.6667 207.5,-38.6667 207.5,-42.3333 203.833,-46 200.167,-46"/>
<text text-anchor="middle" x="175" y="-31.9" font-family="Times,serif" font-size="12.00" fill="#780006">succeeded</text>
</a>
</g>
</g>
<!-- /SM_ROOT/NAVIGATION_LOOP/__proxy__&#45;&gt;/SM_ROOT:preempted -->
<g id="edge2" class="edge"><title>/SM_ROOT/NAVIGATION_LOOP/__proxy__&#45;&gt;/SM_ROOT:preempted</title>
<g id="a_edge2"><a xlink:href="/SM_ROOT/NAVIGATION_LOOP:preempted:/SM_ROOT/preempted" xlink:title="preempted">
<path fill="none" stroke="#000000" stroke-width="2" stroke-opacity="0.333333" d="M135.222,-105.239C146.073,-94.4702 160.364,-81.7716 175,-73 177.972,-71.2188 211.228,-59.2604 238.972,-49.4131"/>
<polygon fill="#000000" fill-opacity="0.333333" stroke="#000000" stroke-width="2" stroke-opacity="0.333333" points="240.24,-52.6772 248.497,-46.0382 237.902,-46.0792 240.24,-52.6772"/>
</a>
</g>
<g id="a_edge2&#45;label"><a xlink:href="/SM_ROOT/NAVIGATION_LOOP:preempted:/SM_ROOT/preempted" xlink:title="preempted">
<text text-anchor="middle" x="200" y="-76.4" font-family="Times,serif" font-size="12.00">preempted</text>
</a>
</g>
</g>
<!-- /SM_ROOT/NAVIGATION_LOOP/__proxy__&#45;&gt;/SM_ROOT:aborted -->
<g id="edge3" class="edge"><title>/SM_ROOT/NAVIGATION_LOOP/__proxy__&#45;&gt;/SM_ROOT:aborted</title>
<g id="a_edge3"><a xlink:href="/SM_ROOT/NAVIGATION_LOOP:aborted:/SM_ROOT/aborted" xlink:title="aborted">
<path fill="none" stroke="#000000" stroke-width="2" stroke-opacity="0.333333" d="M232.519,-105.232C252.712,-100.026 273.234,-93.6754 292,-86 313.353,-77.2662 335.505,-63.1891 351.235,-52.1936"/>
<polygon fill="#000000" fill-opacity="0.333333" stroke="#000000" stroke-width="2" stroke-opacity="0.333333" points="353.602,-54.8038 359.699,-46.1394 349.529,-49.1102 353.602,-54.8038"/>
</a>
</g>
<g id="a_edge3&#45;label"><a xlink:href="/SM_ROOT/NAVIGATION_LOOP:aborted:/SM_ROOT/aborted" xlink:title="aborted">
<text text-anchor="middle" x="336" y="-76.4" font-family="Times,serif" font-size="12.00">aborted</text>
</a>
</g>
</g>
<!-- /SM_ROOT/NAVIGATION_LOOP/__proxy__&#45;&gt;/SM_ROOT/NAVIGATION_LOOP/__proxy__ -->
<g id="edge4" class="edge"><title>/SM_ROOT/NAVIGATION_LOOP/__proxy__&#45;&gt;/SM_ROOT/NAVIGATION_LOOP/__proxy__</title>
<g id="a_edge4"><a xlink:href="/SM_ROOT/NAVIGATION_LOOP:loop:/SM_ROOT/NAVIGATION_LOOP" xlink:title="loop">
<path fill="none" stroke="black" stroke-width="2" d="M208.697,-135.404C229.394,-134.63 244.5,-131.829 244.5,-127 244.5,-123.001 234.14,-120.392 218.825,-119.175"/>
<polygon fill="black" stroke="black" stroke-width="2" points="218.88,-115.672 208.697,-118.596 218.481,-122.661 218.88,-115.672"/>
</a>
</g>
<g id="a_edge4&#45;label"><a xlink:href="/SM_ROOT/NAVIGATION_LOOP:loop:/SM_ROOT/NAVIGATION_LOOP" xlink:title="loop">
<text text-anchor="middle" x="255.5" y="-123.9" font-family="Times,serif" font-size="12.00">loop</text>
</a>
</g>
</g>
<!-- /SM_ROOT/NAVIGATION_TO_CHARGE_WITH_CONTROL/__proxy__ -->
<g id="node6" class="node"><title>/SM_ROOT/NAVIGATION_TO_CHARGE_WITH_CONTROL/__proxy__</title>
<g id="a_node6"><a xlink:href="/SM_ROOT/NAVIGATION_TO_CHARGE_WITH_CONTROL" xlink:title="NAVIGATION_TO_CHARGE_WITH_CONTROL">
<text text-anchor="middle" x="725" y="-122.6" font-family="Times,serif" font-size="18.00">NAVIGATION_TO_CHARGE_WITH_CONTROL</text>
</a>
</g>
</g>
<!-- /SM_ROOT/NAVIGATION_LOOP/__proxy__&#45;&gt;/SM_ROOT/NAVIGATION_TO_CHARGE_WITH_CONTROL/__proxy__ -->
<g id="edge1" class="edge"><title>/SM_ROOT/NAVIGATION_LOOP/__proxy__&#45;&gt;/SM_ROOT/NAVIGATION_TO_CHARGE_WITH_CONTROL/__proxy__</title>
<g id="a_edge1"><a xlink:href="/SM_ROOT/NAVIGATION_LOOP:charge:/SM_ROOT/NAVIGATION_TO_CHARGE_WITH_CONTROL" xlink:title="charge">
<path fill="none" stroke="black" stroke-width="2" d="M203.752,-148.746C247.916,-158.596 302.464,-169.115 352,-174 446.965,-183.364 555.119,-166.703 630.422,-150.688"/>
<polygon fill="black" stroke="black" stroke-width="2" points="631.329,-154.073 640.363,-148.538 629.849,-147.232 631.329,-154.073"/>
</a>
</g>
<g id="a_edge1&#45;label"><a xlink:href="/SM_ROOT/NAVIGATION_LOOP:charge:/SM_ROOT/NAVIGATION_TO_CHARGE_WITH_CONTROL" xlink:title="charge">
<text text-anchor="middle" x="368" y="-171.4" font-family="Times,serif" font-size="12.00">charge</text>
</a>
</g>
</g>
<!-- /SM_ROOT/NAVIGATION_TO_CHARGE_WITH_CONTROL/__proxy__&#45;&gt;/SM_ROOT:preempted -->
<g id="edge7" class="edge"><title>/SM_ROOT/NAVIGATION_TO_CHARGE_WITH_CONTROL/__proxy__&#45;&gt;/SM_ROOT:preempted</title>
<g id="a_edge7"><a xlink:href="/SM_ROOT/NAVIGATION_TO_CHARGE_WITH_CONTROL:preempted:/SM_ROOT/preempted" xlink:title="preempted">
<path fill="none" stroke="#000000" stroke-width="2" stroke-opacity="0.333333" d="M609.267,-105.476C497.04,-85.5026 341.71,-57.6376 328,-54 322.967,-52.6647 317.722,-51.0633 312.592,-49.3738"/>
<polygon fill="#000000" fill-opacity="0.333333" stroke="#000000" stroke-width="2" stroke-opacity="0.333333" points="313.551,-46.0024 302.956,-46.0628 311.276,-52.6225 313.551,-46.0024"/>
</a>
</g>
<g id="a_edge7&#45;label"><a xlink:href="/SM_ROOT/NAVIGATION_TO_CHARGE_WITH_CONTROL:preempted:/SM_ROOT/preempted" xlink:title="preempted">
<text text-anchor="middle" x="524" y="-76.4" font-family="Times,serif" font-size="12.00">preempted</text>
</a>
</g>
</g>
<!-- /SM_ROOT/NAVIGATION_TO_CHARGE_WITH_CONTROL/__proxy__&#45;&gt;/SM_ROOT:aborted -->
<g id="edge6" class="edge"><title>/SM_ROOT/NAVIGATION_TO_CHARGE_WITH_CONTROL/__proxy__&#45;&gt;/SM_ROOT:aborted</title>
<g id="a_edge6"><a xlink:href="/SM_ROOT/NAVIGATION_TO_CHARGE_WITH_CONTROL:aborted:/SM_ROOT/aborted" xlink:title="aborted">
<path fill="none" stroke="#000000" stroke-width="2" stroke-opacity="0.333333" d="M694.486,-105.418C676.241,-94.0854 652.168,-80.7805 629,-73 554.084,-47.8417 461.192,-39.7878 410.44,-37.211"/>
<polygon fill="#000000" fill-opacity="0.333333" stroke="#000000" stroke-width="2" stroke-opacity="0.333333" points="410.423,-33.7065 400.272,-36.7401 410.099,-40.699 410.423,-33.7065"/>
</a>
</g>
<g id="a_edge6&#45;label"><a xlink:href="/SM_ROOT/NAVIGATION_TO_CHARGE_WITH_CONTROL:aborted:/SM_ROOT/aborted" xlink:title="aborted">
<text text-anchor="middle" x="677" y="-76.4" font-family="Times,serif" font-size="12.00">aborted</text>
</a>
</g>
</g>
<!-- /SM_ROOT/NAVIGATION_TO_CHARGE_WITH_CONTROL/__proxy__&#45;&gt;/SM_ROOT/NAVIGATION_TO_CHARGE_WITH_CONTROL/__proxy__ -->
<g id="edge5" class="edge"><title>/SM_ROOT/NAVIGATION_TO_CHARGE_WITH_CONTROL/__proxy__&#45;&gt;/SM_ROOT/NAVIGATION_TO_CHARGE_WITH_CONTROL/__proxy__</title>
<g id="a_edge5"><a xlink:href="/SM_ROOT/NAVIGATION_TO_CHARGE_WITH_CONTROL:retry:/SM_ROOT/NAVIGATION_TO_CHARGE_WITH_CONTROL" xlink:title="retry">
<path fill="none" stroke="black" stroke-width="2" d="M922.605,-134.256C944.417,-132.878 958.5,-130.459 958.5,-127 958.5,-124.109 948.659,-121.944 932.688,-120.507"/>
<polygon fill="black" stroke="black" stroke-width="2" points="932.84,-117.008 922.605,-119.744 932.312,-123.988 932.84,-117.008"/>
</a>
</g>
<g id="a_edge5&#45;label"><a xlink:href="/SM_ROOT/NAVIGATION_TO_CHARGE_WITH_CONTROL:retry:/SM_ROOT/NAVIGATION_TO_CHARGE_WITH_CONTROL" xlink:title="retry">
<text text-anchor="middle" x="969.5" y="-123.9" font-family="Times,serif" font-size="12.00">retry</text>
</a>
</g>
</g>
<!-- /SM_ROOT/CHARGING/__proxy__ -->
<g id="node7" class="node"><title>/SM_ROOT/CHARGING/__proxy__</title>
<g id="a_node7"><a xlink:href="/SM_ROOT/CHARGING" xlink:title="CHARGING">
<text text-anchor="middle" x="388" y="-122.6" font-family="Times,serif" font-size="18.00">CHARGING</text>
</a>
</g>
</g>
<!-- /SM_ROOT/NAVIGATION_TO_CHARGE_WITH_CONTROL/__proxy__&#45;&gt;/SM_ROOT/CHARGING/__proxy__ -->
<g id="edge8" class="edge"><title>/SM_ROOT/NAVIGATION_TO_CHARGE_WITH_CONTROL/__proxy__&#45;&gt;/SM_ROOT/CHARGING/__proxy__</title>
<g id="a_edge8"><a xlink:href="/SM_ROOT/NAVIGATION_TO_CHARGE_WITH_CONTROL:succeeded:/SM_ROOT/CHARGING" xlink:title="succeeded">
<path fill="none" stroke="black" stroke-width="2" d="M519.206,-127C495.554,-127 472.934,-127 453.34,-127"/>
<polygon fill="black" stroke="black" stroke-width="2" points="461,-123.5 451,-127 461,-130.5 461,-123.5"/>
</a>
</g>
<g id="a_edge8&#45;label"><a xlink:href="/SM_ROOT/NAVIGATION_TO_CHARGE_WITH_CONTROL:succeeded:/SM_ROOT/CHARGING" xlink:title="succeeded">
<text text-anchor="middle" x="485.25" y="-133.4" font-family="Times,serif" font-size="12.00">succeeded</text>
</a>
</g>
</g>
<!-- /SM_ROOT/CHARGING/__proxy__&#45;&gt;/SM_ROOT:preempted -->
<g id="edge9" class="edge"><title>/SM_ROOT/CHARGING/__proxy__&#45;&gt;/SM_ROOT:preempted</title>
<g id="a_edge9"><a xlink:href="/SM_ROOT/CHARGING:preempted:/SM_ROOT/preempted" xlink:title="preempted">
<path fill="none" stroke="#000000" stroke-width="2" stroke-opacity="0.333333" d="M325.406,-117.225C288.972,-110.694 248.087,-100.406 237,-86 228.157,-74.5095 238.708,-61.7486 251.187,-51.9945"/>
<polygon fill="#000000" fill-opacity="0.333333" stroke="#000000" stroke-width="2" stroke-opacity="0.333333" points="253.383,-54.7267 259.481,-46.0624 249.311,-49.0331 253.383,-54.7267"/>
</a>
</g>
<g id="a_edge9&#45;label"><a xlink:href="/SM_ROOT/CHARGING:preempted:/SM_ROOT/preempted" xlink:title="preempted">
<text text-anchor="middle" x="262" y="-76.4" font-family="Times,serif" font-size="12.00">preempted</text>
</a>
</g>
</g>
<!-- /SM_ROOT/CHARGING/__proxy__&#45;&gt;/SM_ROOT:aborted -->
<g id="edge10" class="edge"><title>/SM_ROOT/CHARGING/__proxy__&#45;&gt;/SM_ROOT:aborted</title>
<g id="a_edge10"><a xlink:href="/SM_ROOT/CHARGING:aborted:/SM_ROOT/aborted" xlink:title="aborted">
<path fill="none" stroke="#000000" stroke-width="2" stroke-opacity="0.333333" d="M384.523,-105.14C382.081,-90.4847 378.83,-70.9775 376.403,-56.4206"/>
<polygon fill="#000000" fill-opacity="0.333333" stroke="#000000" stroke-width="2" stroke-opacity="0.333333" points="379.806,-55.5442 374.709,-46.2557 372.901,-56.695 379.806,-55.5442"/>
</a>
</g>
<g id="a_edge10&#45;label"><a xlink:href="/SM_ROOT/CHARGING:aborted:/SM_ROOT/aborted" xlink:title="aborted">
<text text-anchor="middle" x="399" y="-76.4" font-family="Times,serif" font-size="12.00">aborted</text>
</a>
</g>
</g>
<!-- /SM_ROOT/CHARGING/__proxy__&#45;&gt;/SM_ROOT/NAVIGATION_LOOP/__proxy__ -->
<g id="edge11" class="edge"><title>/SM_ROOT/CHARGING/__proxy__&#45;&gt;/SM_ROOT/NAVIGATION_LOOP/__proxy__</title>
<g id="a_edge11"><a xlink:href="/SM_ROOT/CHARGING:succeeded:/SM_ROOT/NAVIGATION_LOOP" xlink:title="succeeded">
<path fill="none" stroke="black" stroke-width="2" d="M325.379,-127C307.669,-127 287.589,-127 267.046,-127"/>
<polygon fill="black" stroke="black" stroke-width="2" points="266.955,-123.5 256.955,-127 266.955,-130.5 266.955,-123.5"/>
</a>
</g>
<g id="a_edge11&#45;label"><a xlink:href="/SM_ROOT/CHARGING:succeeded:/SM_ROOT/NAVIGATION_LOOP" xlink:title="succeeded">
<text text-anchor="middle" x="270.75" y="-133.4" font-family="Times,serif" font-size="12.00">succeeded</text>
</a>
</g>
</g>
<!-- __empty__ -->
<g id="node8" class="node"><title>__empty__</title>
<text text-anchor="middle" x="1046" y="-222.3" font-family="Times,serif" font-size="14.00">Path not available.</text>
</g>
</g>
</svg>
