<?xml version="1.0" encoding="UTF-8" standalone="no"?>
<!DOCTYPE svg PUBLIC "-//W3C//DTD SVG 1.1//EN"
 "http://www.w3.org/Graphics/SVG/1.1/DTD/svg11.dtd">
<!-- Generated by graphviz version 2.38.0 (20140413.2041)
 -->
<!-- Title: %3 Pages: 1 -->
<svg width="582pt" height="664pt"
 viewBox="0.00 0.00 582.00 664.00" xmlns="http://www.w3.org/2000/svg" xmlns:xlink="http://www.w3.org/1999/xlink">
<g id="graph0" class="graph" transform="scale(1 1) rotate(0) translate(4 660)">
<title>%3</title>
<polygon fill="white" stroke="none" points="-4,4 -4,-660 578,-660 578,4 -4,4"/>
<g id="clust1" class="cluster"><title>cluster_/SM_ROOT/CHARGING</title>
<polygon fill="none" stroke="none" points="8,-8 8,-648 448,-648 448,-8 8,-8"/>
</g>
<g id="clust2" class="cluster"><title>cluster_/SM_ROOT/CHARGING/__outcomes__</title>
<path fill="none" stroke="#ffffff" d="M99,-16C99,-16 349,-16 349,-16 355,-16 361,-22 361,-28 361,-28 361,-42 361,-42 361,-48 355,-54 349,-54 349,-54 99,-54 99,-54 93,-54 87,-48 87,-42 87,-42 87,-28 87,-28 87,-22 93,-16 99,-16"/>
</g>
<g id="clust3" class="cluster"><title>cluster_/SM_ROOT/CHARGING/NAVIGATE</title>
<path fill="none" stroke="#000000" stroke-width="2" d="M326,-105C326,-105 428,-105 428,-105 434,-105 440,-111 440,-117 440,-117 440,-137 440,-137 440,-143 434,-149 428,-149 428,-149 326,-149 326,-149 320,-149 314,-143 314,-137 314,-137 314,-117 314,-117 314,-111 320,-105 326,-105"/>
</g>
<!-- /SM_ROOT/CHARGING/__proxy__ -->
<g id="node1" class="node"><title>/SM_ROOT/CHARGING/__proxy__</title>
<g id="a_node1"><a xlink:href="/SM_ROOT/CHARGING" xlink:title="CHARGING">
<text text-anchor="middle" x="154" y="-621.6" font-family="Times,serif" font-size="18.00">CHARGING</text>
</a>
</g>
</g>
<!-- /SM_ROOT/CHARGING/WAIT_FOR_RECHARGE -->
<g id="node7" class="node"><title>/SM_ROOT/CHARGING/WAIT_FOR_RECHARGE</title>
<g id="a_node7"><a xlink:href="/SM_ROOT/CHARGING/WAIT_FOR_RECHARGE" xlink:title="WAIT_FOR_RECHARGE">
<ellipse fill="none" stroke="#000000" stroke-width="2" cx="154" cy="-535" rx="107.482" ry="18"/>
<text text-anchor="middle" x="154" y="-531.3" font-family="Times,serif" font-size="14.00">WAIT_FOR_RECHARGE</text>
</a>
</g>
</g>
<!-- /SM_ROOT/CHARGING/__proxy__&#45;&gt;/SM_ROOT/CHARGING/WAIT_FOR_RECHARGE -->
<g id="edge12" class="edge"><title>/SM_ROOT/CHARGING/__proxy__&#45;&gt;/SM_ROOT/CHARGING/WAIT_FOR_RECHARGE</title>
<g id="a_edge12"><a xlink:href="/SM_ROOT/CHARGING/__proxy__::/SM_ROOT/CHARGING/WAIT_FOR_RECHARGE">
<path fill="none" stroke="black" stroke-width="2" d="M154,-611.868C154,-599.217 154,-579.686 154,-563.608"/>
<polygon fill="black" stroke="black" stroke-width="2" points="157.5,-563.157 154,-553.157 150.5,-563.157 157.5,-563.157"/>
</a>
</g>
</g>
<!-- /SM_ROOT/CHARGING:preempted -->
<g id="node2" class="node"><title>/SM_ROOT/CHARGING:preempted</title>
<g id="a_node2"><a xlink:href="/SM_ROOT/CHARGING:preempted" xlink:title="preempted">
<path fill="#fe464f" stroke="#780006" d="M153.667,-46C153.667,-46 102.333,-46 102.333,-46 98.6667,-46 95,-42.3333 95,-38.6667 95,-38.6667 95,-31.3333 95,-31.3333 95,-27.6667 98.6667,-24 102.333,-24 102.333,-24 153.667,-24 153.667,-24 157.333,-24 161,-27.6667 161,-31.3333 161,-31.3333 161,-38.6667 161,-38.6667 161,-42.3333 157.333,-46 153.667,-46"/>
<text text-anchor="middle" x="128" y="-31.9" font-family="Times,serif" font-size="12.00" fill="#780006">preempted</text>
</a>
</g>
</g>
<!-- /SM_ROOT/CHARGING:aborted -->
<g id="node3" class="node"><title>/SM_ROOT/CHARGING:aborted</title>
<g id="a_node3"><a xlink:href="/SM_ROOT/CHARGING:aborted" xlink:title="aborted">
<path fill="#fe464f" stroke="#780006" d="M243.667,-46C243.667,-46 204.333,-46 204.333,-46 200.667,-46 197,-42.3333 197,-38.6667 197,-38.6667 197,-31.3333 197,-31.3333 197,-27.6667 200.667,-24 204.333,-24 204.333,-24 243.667,-24 243.667,-24 247.333,-24 251,-27.6667 251,-31.3333 251,-31.3333 251,-38.6667 251,-38.6667 251,-42.3333 247.333,-46 243.667,-46"/>
<text text-anchor="middle" x="224" y="-31.9" font-family="Times,serif" font-size="12.00" fill="#780006">aborted</text>
</a>
</g>
</g>
<!-- /SM_ROOT/CHARGING:succeeded -->
<g id="node4" class="node"><title>/SM_ROOT/CHARGING:succeeded</title>
<g id="a_node4"><a xlink:href="/SM_ROOT/CHARGING:succeeded" xlink:title="succeeded">
<path fill="#fe464f" stroke="#780006" d="M345.167,-46C345.167,-46 294.833,-46 294.833,-46 291.167,-46 287.5,-42.3333 287.5,-38.6667 287.5,-38.6667 287.5,-31.3333 287.5,-31.3333 287.5,-27.6667 291.167,-24 294.833,-24 294.833,-24 345.167,-24 345.167,-24 348.833,-24 352.5,-27.6667 352.5,-31.3333 352.5,-31.3333 352.5,-38.6667 352.5,-38.6667 352.5,-42.3333 348.833,-46 345.167,-46"/>
<text text-anchor="middle" x="320" y="-31.9" font-family="Times,serif" font-size="12.00" fill="#780006">succeeded</text>
</a>
</g>
</g>
<!-- /SM_ROOT/CHARGING/SET_POSE_KALMAN -->
<g id="node5" class="node"><title>/SM_ROOT/CHARGING/SET_POSE_KALMAN</title>
<g id="a_node5"><a xlink:href="/SM_ROOT/CHARGING/SET_POSE_KALMAN" xlink:title="SET_POSE_KALMAN">
<ellipse fill="none" stroke="#000000" stroke-width="2" cx="186" cy="-432" rx="95.5831" ry="18"/>
<text text-anchor="middle" x="186" y="-428.3" font-family="Times,serif" font-size="14.00">SET_POSE_KALMAN</text>
</a>
</g>
</g>
<!-- /SM_ROOT/CHARGING/MOVE_BACKWARDS -->
<g id="node8" class="node"><title>/SM_ROOT/CHARGING/MOVE_BACKWARDS</title>
<g id="a_node8"><a xlink:href="/SM_ROOT/CHARGING/MOVE_BACKWARDS" xlink:title="MOVE_BACKWARDS">
<ellipse fill="none" stroke="#000000" stroke-width="2" cx="187" cy="-329" rx="98.2828" ry="18"/>
<text text-anchor="middle" x="187" y="-325.3" font-family="Times,serif" font-size="14.00">MOVE_BACKWARDS</text>
</a>
</g>
</g>
<!-- /SM_ROOT/CHARGING/SET_POSE_KALMAN&#45;&gt;/SM_ROOT/CHARGING/MOVE_BACKWARDS -->
<g id="edge1" class="edge"><title>/SM_ROOT/CHARGING/SET_POSE_KALMAN&#45;&gt;/SM_ROOT/CHARGING/MOVE_BACKWARDS</title>
<g id="a_edge1"><a xlink:href="/SM_ROOT/CHARGING/SET_POSE_KALMAN:succeeded:/SM_ROOT/CHARGING/MOVE_BACKWARDS" xlink:title="succeeded">
<path fill="none" stroke="black" stroke-width="2" d="M186.17,-413.867C186.323,-398.414 186.55,-375.416 186.729,-357.409"/>
<polygon fill="black" stroke="black" stroke-width="2" points="190.23,-357.252 186.83,-347.217 183.231,-357.182 190.23,-357.252"/>
</a>
</g>
<g id="a_edge1&#45;label"><a xlink:href="/SM_ROOT/CHARGING/SET_POSE_KALMAN:succeeded:/SM_ROOT/CHARGING/MOVE_BACKWARDS" xlink:title="succeeded">
<text text-anchor="middle" x="211.5" y="-377.4" font-family="Times,serif" font-size="12.00">succeeded</text>
</a>
</g>
</g>
<!-- /SM_ROOT/CHARGING/UNLOCK_SOLENOID -->
<g id="node6" class="node"><title>/SM_ROOT/CHARGING/UNLOCK_SOLENOID</title>
<g id="a_node6"><a xlink:href="/SM_ROOT/CHARGING/UNLOCK_SOLENOID" xlink:title="UNLOCK_SOLENOID">
<ellipse fill="none" stroke="#000000" stroke-width="2" cx="234" cy="-226" rx="95.5831" ry="18"/>
<text text-anchor="middle" x="234" y="-222.3" font-family="Times,serif" font-size="14.00">UNLOCK_SOLENOID</text>
</a>
</g>
</g>
<!-- /SM_ROOT/CHARGING/UNLOCK_SOLENOID&#45;&gt;/SM_ROOT/CHARGING:preempted -->
<g id="edge2" class="edge"><title>/SM_ROOT/CHARGING/UNLOCK_SOLENOID&#45;&gt;/SM_ROOT/CHARGING:preempted</title>
<g id="a_edge2"><a xlink:href="/SM_ROOT/CHARGING/UNLOCK_SOLENOID:preempted:/SM_ROOT/CHARGING/preempted" xlink:title="preempted">
<path fill="none" stroke="#000000" stroke-width="2" stroke-opacity="0.333333" d="M198.994,-209.194C175.516,-196.544 146.357,-176.381 132,-149 116.576,-119.583 119.794,-79.6878 123.749,-56.0164"/>
<polygon fill="#000000" fill-opacity="0.333333" stroke="#000000" stroke-width="2" stroke-opacity="0.333333" points="127.206,-56.571 125.612,-46.0967 120.326,-55.2786 127.206,-56.571"/>
</a>
</g>
<g id="a_edge2&#45;label"><a xlink:href="/SM_ROOT/CHARGING/UNLOCK_SOLENOID:preempted:/SM_ROOT/CHARGING/preempted" xlink:title="preempted">
<text text-anchor="middle" x="157" y="-123.9" font-family="Times,serif" font-size="12.00">preempted</text>
</a>
</g>
</g>
<!-- /SM_ROOT/CHARGING/UNLOCK_SOLENOID&#45;&gt;/SM_ROOT/CHARGING:aborted -->
<g id="edge3" class="edge"><title>/SM_ROOT/CHARGING/UNLOCK_SOLENOID&#45;&gt;/SM_ROOT/CHARGING:aborted</title>
<g id="a_edge3"><a xlink:href="/SM_ROOT/CHARGING/UNLOCK_SOLENOID:aborted:/SM_ROOT/CHARGING/aborted" xlink:title="aborted">
<path fill="none" stroke="#000000" stroke-width="2" stroke-opacity="0.333333" d="M226.189,-207.914C214.88,-182.143 194.484,-131.497 187,-86 186.062,-80.2988 184.789,-78.338 187,-73 190.107,-65.4989 195.554,-58.7256 201.329,-53.0862"/>
<polygon fill="#000000" fill-opacity="0.333333" stroke="#000000" stroke-width="2" stroke-opacity="0.333333" points="204.028,-55.3735 209.218,-46.1371 199.401,-50.1208 204.028,-55.3735"/>
</a>
</g>
<g id="a_edge3&#45;label"><a xlink:href="/SM_ROOT/CHARGING/UNLOCK_SOLENOID:aborted:/SM_ROOT/CHARGING/aborted" xlink:title="aborted">
<text text-anchor="middle" x="222" y="-123.9" font-family="Times,serif" font-size="12.00">aborted</text>
</a>
</g>
</g>
<!-- /SM_ROOT/CHARGING/NAVIGATE/__proxy__ -->
<g id="node9" class="node"><title>/SM_ROOT/CHARGING/NAVIGATE/__proxy__</title>
<g id="a_node9"><a xlink:href="/SM_ROOT/CHARGING/NAVIGATE" xlink:title="NAVIGATE">
<text text-anchor="middle" x="377" y="-122.6" font-family="Times,serif" font-size="18.00">NAVIGATE</text>
</a>
</g>
</g>
<!-- /SM_ROOT/CHARGING/UNLOCK_SOLENOID&#45;&gt;/SM_ROOT/CHARGING/NAVIGATE/__proxy__ -->
<g id="edge4" class="edge"><title>/SM_ROOT/CHARGING/UNLOCK_SOLENOID&#45;&gt;/SM_ROOT/CHARGING/NAVIGATE/__proxy__</title>
<g id="a_edge4"><a xlink:href="/SM_ROOT/CHARGING/UNLOCK_SOLENOID:succeeded:/SM_ROOT/CHARGING/NAVIGATE" xlink:title="succeeded">
<path fill="none" stroke="black" stroke-width="2" d="M258.258,-208.545C280.191,-193.667 312.86,-171.507 338.383,-154.195"/>
<polygon fill="black" stroke="black" stroke-width="2" points="340.427,-157.037 346.738,-148.527 336.498,-151.244 340.427,-157.037"/>
</a>
</g>
<g id="a_edge4&#45;label"><a xlink:href="/SM_ROOT/CHARGING/UNLOCK_SOLENOID:succeeded:/SM_ROOT/CHARGING/NAVIGATE" xlink:title="succeeded">
<text text-anchor="middle" x="338.5" y="-171.4" font-family="Times,serif" font-size="12.00">succeeded</text>
</a>
</g>
</g>
<!-- /SM_ROOT/CHARGING/WAIT_FOR_RECHARGE&#45;&gt;/SM_ROOT/CHARGING:preempted -->
<g id="edge5" class="edge"><title>/SM_ROOT/CHARGING/WAIT_FOR_RECHARGE&#45;&gt;/SM_ROOT/CHARGING:preempted</title>
<g id="a_edge5"><a xlink:href="/SM_ROOT/CHARGING/WAIT_FOR_RECHARGE:preempted:/SM_ROOT/CHARGING/preempted" xlink:title="preempted">
<path fill="none" stroke="#000000" stroke-width="2" stroke-opacity="0.333333" d="M129.466,-517.255C109.813,-502.239 83.6655,-478.257 72,-450 52.0214,-401.607 68.8319,-137.479 77,-105 82.0546,-84.9015 96.6779,-66.2695 108.977,-53.4461"/>
<polygon fill="#000000" fill-opacity="0.333333" stroke="#000000" stroke-width="2" stroke-opacity="0.333333" points="111.595,-55.7792 116.228,-46.2511 106.664,-50.8102 111.595,-55.7792"/>
</a>
</g>
<g id="a_edge5&#45;label"><a xlink:href="/SM_ROOT/CHARGING/WAIT_FOR_RECHARGE:preempted:/SM_ROOT/CHARGING/preempted" xlink:title="preempted">
<text text-anchor="middle" x="89" y="-274.4" font-family="Times,serif" font-size="12.00">preempted</text>
</a>
</g>
</g>
<!-- /SM_ROOT/CHARGING/WAIT_FOR_RECHARGE&#45;&gt;/SM_ROOT/CHARGING/SET_POSE_KALMAN -->
<g id="edge6" class="edge"><title>/SM_ROOT/CHARGING/WAIT_FOR_RECHARGE&#45;&gt;/SM_ROOT/CHARGING/SET_POSE_KALMAN</title>
<g id="a_edge6"><a xlink:href="/SM_ROOT/CHARGING/WAIT_FOR_RECHARGE:level_reached:/SM_ROOT/CHARGING/SET_POSE_KALMAN" xlink:title="level_reached">
<path fill="none" stroke="black" stroke-width="2" d="M159.428,-516.867C164.37,-501.269 171.748,-477.983 177.476,-459.903"/>
<polygon fill="black" stroke="black" stroke-width="2" points="180.861,-460.807 180.545,-450.217 174.188,-458.693 180.861,-460.807"/>
</a>
</g>
<g id="a_edge6&#45;label"><a xlink:href="/SM_ROOT/CHARGING/WAIT_FOR_RECHARGE:level_reached:/SM_ROOT/CHARGING/SET_POSE_KALMAN" xlink:title="level_reached">
<text text-anchor="middle" x="205" y="-480.4" font-family="Times,serif" font-size="12.00">level_reached</text>
</a>
</g>
</g>
<!-- /SM_ROOT/CHARGING/MOVE_BACKWARDS&#45;&gt;/SM_ROOT/CHARGING:preempted -->
<g id="edge8" class="edge"><title>/SM_ROOT/CHARGING/MOVE_BACKWARDS&#45;&gt;/SM_ROOT/CHARGING:preempted</title>
<g id="a_edge8"><a xlink:href="/SM_ROOT/CHARGING/MOVE_BACKWARDS:preempted:/SM_ROOT/CHARGING/preempted" xlink:title="preempted">
<path fill="none" stroke="#000000" stroke-width="2" stroke-opacity="0.333333" d="M169.414,-311.066C144.601,-285.655 100.895,-234.862 88,-181 77.1156,-135.537 101.013,-82.7527 116.371,-55.1176"/>
<polygon fill="#000000" fill-opacity="0.333333" stroke="#000000" stroke-width="2" stroke-opacity="0.333333" points="119.589,-56.5437 121.562,-46.1342 113.528,-53.0413 119.589,-56.5437"/>
</a>
</g>
<g id="a_edge8&#45;label"><a xlink:href="/SM_ROOT/CHARGING/MOVE_BACKWARDS:preempted:/SM_ROOT/CHARGING/preempted" xlink:title="preempted">
<text text-anchor="middle" x="113" y="-171.4" font-family="Times,serif" font-size="12.00">preempted</text>
</a>
</g>
</g>
<!-- /SM_ROOT/CHARGING/MOVE_BACKWARDS&#45;&gt;/SM_ROOT/CHARGING/UNLOCK_SOLENOID -->
<g id="edge7" class="edge"><title>/SM_ROOT/CHARGING/MOVE_BACKWARDS&#45;&gt;/SM_ROOT/CHARGING/UNLOCK_SOLENOID</title>
<g id="a_edge7"><a xlink:href="/SM_ROOT/CHARGING/MOVE_BACKWARDS:velocity_published:/SM_ROOT/CHARGING/UNLOCK_SOLENOID" xlink:title="velocity_published">
<path fill="none" stroke="black" stroke-width="2" d="M194.973,-310.867C202.265,-295.196 213.168,-271.766 221.598,-253.651"/>
<polygon fill="black" stroke="black" stroke-width="2" points="224.942,-254.76 225.988,-244.217 218.596,-251.807 224.942,-254.76"/>
</a>
</g>
<g id="a_edge7&#45;label"><a xlink:href="/SM_ROOT/CHARGING/MOVE_BACKWARDS:velocity_published:/SM_ROOT/CHARGING/UNLOCK_SOLENOID" xlink:title="velocity_published">
<text text-anchor="middle" x="259" y="-274.4" font-family="Times,serif" font-size="12.00">velocity_published</text>
</a>
</g>
</g>
<!-- /SM_ROOT/CHARGING/NAVIGATE/__proxy__&#45;&gt;/SM_ROOT/CHARGING:preempted -->
<g id="edge9" class="edge"><title>/SM_ROOT/CHARGING/NAVIGATE/__proxy__&#45;&gt;/SM_ROOT/CHARGING:preempted</title>
<g id="a_edge9"><a xlink:href="/SM_ROOT/CHARGING/NAVIGATE:preempted:/SM_ROOT/CHARGING/preempted" xlink:title="preempted">
<path fill="none" stroke="#000000" stroke-width="2" stroke-opacity="0.333333" d="M319,-105C278.392,-93.5663 265.819,-99.9356 226,-86 200.127,-76.945 172.463,-62.3285 153.149,-51.232"/>
<polygon fill="#000000" fill-opacity="0.333333" stroke="#000000" stroke-width="2" stroke-opacity="0.333333" points="154.781,-48.1324 144.382,-46.1072 151.249,-54.1756 154.781,-48.1324"/>
</a>
</g>
<g id="a_edge9&#45;label"><a xlink:href="/SM_ROOT/CHARGING/NAVIGATE:preempted:/SM_ROOT/CHARGING/preempted" xlink:title="preempted">
<text text-anchor="middle" x="251" y="-76.4" font-family="Times,serif" font-size="12.00">preempted</text>
</a>
</g>
</g>
<!-- /SM_ROOT/CHARGING/NAVIGATE/__proxy__&#45;&gt;/SM_ROOT/CHARGING:aborted -->
<g id="edge10" class="edge"><title>/SM_ROOT/CHARGING/NAVIGATE/__proxy__&#45;&gt;/SM_ROOT/CHARGING:aborted</title>
<g id="a_edge10"><a xlink:href="/SM_ROOT/CHARGING/NAVIGATE:aborted:/SM_ROOT/CHARGING/aborted" xlink:title="aborted">
<path fill="none" stroke="#000000" stroke-width="2" stroke-opacity="0.333333" d="M339.277,-105.066C328.486,-98.9918 316.74,-92.2973 306,-86 286.762,-74.72 265.243,-61.5784 249.078,-51.5995"/>
<polygon fill="#000000" fill-opacity="0.333333" stroke="#000000" stroke-width="2" stroke-opacity="0.333333" points="250.581,-48.4142 240.236,-46.1276 246.898,-54.3664 250.581,-48.4142"/>
</a>
</g>
<g id="a_edge10&#45;label"><a xlink:href="/SM_ROOT/CHARGING/NAVIGATE:aborted:/SM_ROOT/CHARGING/aborted" xlink:title="aborted">
<text text-anchor="middle" x="324" y="-76.4" font-family="Times,serif" font-size="12.00">aborted</text>
</a>
</g>
</g>
<!-- /SM_ROOT/CHARGING/NAVIGATE/__proxy__&#45;&gt;/SM_ROOT/CHARGING:succeeded -->
<g id="edge11" class="edge"><title>/SM_ROOT/CHARGING/NAVIGATE/__proxy__&#45;&gt;/SM_ROOT/CHARGING:succeeded</title>
<g id="a_edge11"><a xlink:href="/SM_ROOT/CHARGING/NAVIGATE:succeeded:/SM_ROOT/CHARGING/succeeded" xlink:title="succeeded">
<path fill="none" stroke="#000000" stroke-width="2" stroke-opacity="0.333333" d="M368.133,-105.031C363.551,-95.0242 357.549,-83.0678 351,-73 346.763,-66.4868 341.529,-59.838 336.575,-54.0062"/>
<polygon fill="#000000" fill-opacity="0.333333" stroke="#000000" stroke-width="2" stroke-opacity="0.333333" points="338.902,-51.352 329.668,-46.1575 333.647,-55.9767 338.902,-51.352"/>
</a>
</g>
<g id="a_edge11&#45;label"><a xlink:href="/SM_ROOT/CHARGING/NAVIGATE:succeeded:/SM_ROOT/CHARGING/succeeded" xlink:title="succeeded">
<text text-anchor="middle" x="382.5" y="-76.4" font-family="Times,serif" font-size="12.00">succeeded</text>
</a>
</g>
</g>
</g>
</svg>
