<?xml version="1.0" encoding="UTF-8" standalone="no"?>
<!DOCTYPE svg PUBLIC "-//W3C//DTD SVG 1.1//EN"
 "http://www.w3.org/Graphics/SVG/1.1/DTD/svg11.dtd">
<!-- Generated by graphviz version 2.38.0 (20140413.2041)
 -->
<!-- Title: %3 Pages: 1 -->
<svg width="958pt" height="554pt"
 viewBox="0.00 0.00 958.00 554.00" xmlns="http://www.w3.org/2000/svg" xmlns:xlink="http://www.w3.org/1999/xlink">
<g id="graph0" class="graph" transform="scale(1 1) rotate(0) translate(4 550)">
<title>%3</title>
<polygon fill="white" stroke="none" points="-4,4 -4,-550 954,-550 954,4 -4,4"/>
<g id="clust1" class="cluster"><title>cluster_/SM_ROOT/NAVIGATION_TO_CHARGE_WITH_CONTROL</title>
<polygon fill="none" stroke="none" points="8,-8 8,-538 812,-538 812,-8 8,-8"/>
</g>
<g id="clust2" class="cluster"><title>cluster_/SM_ROOT/NAVIGATION_TO_CHARGE_WITH_CONTROL/__outcomes__</title>
<path fill="none" stroke="#ffffff" d="M452,-492C452,-492 792,-492 792,-492 798,-492 804,-498 804,-504 804,-504 804,-518 804,-518 804,-524 798,-530 792,-530 792,-530 452,-530 452,-530 446,-530 440,-524 440,-518 440,-518 440,-504 440,-504 440,-498 446,-492 452,-492"/>
</g>
<g id="clust3" class="cluster"><title>cluster_/SM_ROOT/NAVIGATION_TO_CHARGE_WITH_CONTROL/COMPLETE_NAVIGATION_FOR_CHARGING</title>
<path fill="none" stroke="#000000" stroke-width="2" d="M28,-16C28,-16 458,-16 458,-16 464,-16 470,-22 470,-28 470,-28 470,-430 470,-430 470,-436 464,-442 458,-442 458,-442 28,-442 28,-442 22,-442 16,-436 16,-430 16,-430 16,-28 16,-28 16,-22 22,-16 28,-16"/>
</g>
<g id="clust4" class="cluster"><title>cluster_/SM_ROOT/NAVIGATION_TO_CHARGE_WITH_CONTROL/COMPLETE_NAVIGATION_FOR_CHARGING/__outcomes__</title>
<path fill="none" stroke="#ffffff" d="M116,-24C116,-24 366,-24 366,-24 372,-24 378,-30 378,-36 378,-36 378,-50 378,-50 378,-56 372,-62 366,-62 366,-62 116,-62 116,-62 110,-62 104,-56 104,-50 104,-50 104,-36 104,-36 104,-30 110,-24 116,-24"/>
</g>
<g id="clust5" class="cluster"><title>cluster_/SM_ROOT/NAVIGATION_TO_CHARGE_WITH_CONTROL/COMPLETE_NAVIGATION_FOR_CHARGING/NAVIGATE_TO_PLUG_AND_CONTROL</title>
<path fill="none" stroke="#000000" stroke-width="2" d="M120,-216C120,-216 450,-216 450,-216 456,-216 462,-222 462,-228 462,-228 462,-248 462,-248 462,-254 456,-260 450,-260 450,-260 120,-260 120,-260 114,-260 108,-254 108,-248 108,-248 108,-228 108,-228 108,-222 114,-216 120,-216"/>
</g>
<g id="clust6" class="cluster"><title>cluster_/SM_ROOT/NAVIGATION_TO_CHARGE_WITH_CONTROL/COMPLETE_NAVIGATION_FOR_CHARGING/NAVIGATE_BEFORE_STATION</title>
<path fill="none" stroke="#000000" stroke-width="2" d="M47,-311C47,-311 311,-311 311,-311 317,-311 323,-317 323,-323 323,-323 323,-343 323,-343 323,-349 317,-355 311,-355 311,-355 47,-355 47,-355 41,-355 35,-349 35,-343 35,-343 35,-323 35,-323 35,-317 41,-311 47,-311"/>
</g>
<!-- /SM_ROOT/NAVIGATION_TO_CHARGE_WITH_CONTROL/__proxy__ -->
<g id="node1" class="node"><title>/SM_ROOT/NAVIGATION_TO_CHARGE_WITH_CONTROL/__proxy__</title>
<g id="a_node1"><a xlink:href="/SM_ROOT/NAVIGATION_TO_CHARGE_WITH_CONTROL" xlink:title="NAVIGATION_TO_CHARGE_WITH_CONTROL">
<text text-anchor="middle" x="214" y="-506.6" font-family="Times,serif" font-size="18.00">NAVIGATION_TO_CHARGE_WITH_CONTROL</text>
</a>
</g>
</g>
<!-- /SM_ROOT/NAVIGATION_TO_CHARGE_WITH_CONTROL/COMPLETE_NAVIGATION_FOR_CHARGING/__proxy__ -->
<g id="node6" class="node"><title>/SM_ROOT/NAVIGATION_TO_CHARGE_WITH_CONTROL/COMPLETE_NAVIGATION_FOR_CHARGING/__proxy__</title>
<g id="a_node6"><a xlink:href="/SM_ROOT/NAVIGATION_TO_CHARGE_WITH_CONTROL/COMPLETE_NAVIGATION_FOR_CHARGING" xlink:title="COMPLETE_NAVIGATION_FOR_CHARGING">
<text text-anchor="middle" x="214" y="-415.6" font-family="Times,serif" font-size="18.00">COMPLETE_NAVIGATION_FOR_CHARGING</text>
</a>
</g>
</g>
<!-- /SM_ROOT/NAVIGATION_TO_CHARGE_WITH_CONTROL/__proxy__&#45;&gt;/SM_ROOT/NAVIGATION_TO_CHARGE_WITH_CONTROL/COMPLETE_NAVIGATION_FOR_CHARGING/__proxy__ -->
<g id="edge10" class="edge"><title>/SM_ROOT/NAVIGATION_TO_CHARGE_WITH_CONTROL/__proxy__&#45;&gt;/SM_ROOT/NAVIGATION_TO_CHARGE_WITH_CONTROL/COMPLETE_NAVIGATION_FOR_CHARGING/__proxy__</title>
<g id="a_edge10"><a xlink:href="/SM_ROOT/NAVIGATION_TO_CHARGE_WITH_CONTROL/__proxy__::/SM_ROOT/NAVIGATION_TO_CHARGE_WITH_CONTROL/COMPLETE_NAVIGATION_FOR_CHARGING">
<path fill="none" stroke="black" stroke-width="2" d="M214,-496.868C214,-483.064 214,-461.068 214,-444.307"/>
<polygon fill="black" stroke="black" stroke-width="2" points="217.5,-452 214,-442 210.5,-452 217.5,-452"/>
</a>
</g>
</g>
<!-- /SM_ROOT/NAVIGATION_TO_CHARGE_WITH_CONTROL/TIMING_OUT -->
<g id="node13" class="node"><title>/SM_ROOT/NAVIGATION_TO_CHARGE_WITH_CONTROL/TIMING_OUT</title>
<g id="a_node13"><a xlink:href="/SM_ROOT/NAVIGATION_TO_CHARGE_WITH_CONTROL/TIMING_OUT" xlink:title="TIMING_OUT">
<ellipse fill="none" stroke="#000000" stroke-width="2" cx="544" cy="-420" rx="65.7887" ry="18"/>
<text text-anchor="middle" x="544" y="-416.3" font-family="Times,serif" font-size="14.00">TIMING_OUT</text>
</a>
</g>
</g>
<!-- /SM_ROOT/NAVIGATION_TO_CHARGE_WITH_CONTROL/__proxy__&#45;&gt;/SM_ROOT/NAVIGATION_TO_CHARGE_WITH_CONTROL/TIMING_OUT -->
<g id="edge11" class="edge"><title>/SM_ROOT/NAVIGATION_TO_CHARGE_WITH_CONTROL/__proxy__&#45;&gt;/SM_ROOT/NAVIGATION_TO_CHARGE_WITH_CONTROL/TIMING_OUT</title>
<g id="a_edge11"><a xlink:href="/SM_ROOT/NAVIGATION_TO_CHARGE_WITH_CONTROL/__proxy__::/SM_ROOT/NAVIGATION_TO_CHARGE_WITH_CONTROL/TIMING_OUT">
<path fill="none" stroke="black" stroke-width="2" d="M265.944,-496.995C318.532,-483.692 402.126,-462.173 474,-442 479.791,-440.375 485.838,-438.631 491.847,-436.869"/>
<polygon fill="black" stroke="black" stroke-width="2" points="493.276,-440.096 501.872,-433.903 491.29,-433.384 493.276,-440.096"/>
</a>
</g>
</g>
<!-- /SM_ROOT/NAVIGATION_TO_CHARGE_WITH_CONTROL:preempted -->
<g id="node2" class="node"><title>/SM_ROOT/NAVIGATION_TO_CHARGE_WITH_CONTROL:preempted</title>
<g id="a_node2"><a xlink:href="/SM_ROOT/NAVIGATION_TO_CHARGE_WITH_CONTROL:preempted" xlink:title="preempted">
<path fill="#fe464f" stroke="#780006" d="M788.667,-522C788.667,-522 737.333,-522 737.333,-522 733.667,-522 730,-518.333 730,-514.667 730,-514.667 730,-507.333 730,-507.333 730,-503.667 733.667,-500 737.333,-500 737.333,-500 788.667,-500 788.667,-500 792.333,-500 796,-503.667 796,-507.333 796,-507.333 796,-514.667 796,-514.667 796,-518.333 792.333,-522 788.667,-522"/>
<text text-anchor="middle" x="763" y="-507.9" font-family="Times,serif" font-size="12.00" fill="#780006">preempted</text>
</a>
</g>
</g>
<!-- /SM_ROOT/NAVIGATION_TO_CHARGE_WITH_CONTROL:aborted -->
<g id="node3" class="node"><title>/SM_ROOT/NAVIGATION_TO_CHARGE_WITH_CONTROL:aborted</title>
<g id="a_node3"><a xlink:href="/SM_ROOT/NAVIGATION_TO_CHARGE_WITH_CONTROL:aborted" xlink:title="aborted">
<path fill="#fe464f" stroke="#780006" d="M686.667,-522C686.667,-522 647.333,-522 647.333,-522 643.667,-522 640,-518.333 640,-514.667 640,-514.667 640,-507.333 640,-507.333 640,-503.667 643.667,-500 647.333,-500 647.333,-500 686.667,-500 686.667,-500 690.333,-500 694,-503.667 694,-507.333 694,-507.333 694,-514.667 694,-514.667 694,-518.333 690.333,-522 686.667,-522"/>
<text text-anchor="middle" x="667" y="-507.9" font-family="Times,serif" font-size="12.00" fill="#780006">aborted</text>
</a>
</g>
</g>
<!-- /SM_ROOT/NAVIGATION_TO_CHARGE_WITH_CONTROL:succeeded -->
<g id="node4" class="node"><title>/SM_ROOT/NAVIGATION_TO_CHARGE_WITH_CONTROL:succeeded</title>
<g id="a_node4"><a xlink:href="/SM_ROOT/NAVIGATION_TO_CHARGE_WITH_CONTROL:succeeded" xlink:title="succeeded">
<path fill="#fe464f" stroke="#780006" d="M596.167,-522C596.167,-522 545.833,-522 545.833,-522 542.167,-522 538.5,-518.333 538.5,-514.667 538.5,-514.667 538.5,-507.333 538.5,-507.333 538.5,-503.667 542.167,-500 545.833,-500 545.833,-500 596.167,-500 596.167,-500 599.833,-500 603.5,-503.667 603.5,-507.333 603.5,-507.333 603.5,-514.667 603.5,-514.667 603.5,-518.333 599.833,-522 596.167,-522"/>
<text text-anchor="middle" x="571" y="-507.9" font-family="Times,serif" font-size="12.00" fill="#780006">succeeded</text>
</a>
</g>
</g>
<!-- /SM_ROOT/NAVIGATION_TO_CHARGE_WITH_CONTROL:retry -->
<g id="node5" class="node"><title>/SM_ROOT/NAVIGATION_TO_CHARGE_WITH_CONTROL:retry</title>
<g id="a_node5"><a xlink:href="/SM_ROOT/NAVIGATION_TO_CHARGE_WITH_CONTROL:retry" xlink:title="retry">
<path fill="#fe464f" stroke="#780006" d="M494.667,-522C494.667,-522 455.333,-522 455.333,-522 451.667,-522 448,-518.333 448,-514.667 448,-514.667 448,-507.333 448,-507.333 448,-503.667 451.667,-500 455.333,-500 455.333,-500 494.667,-500 494.667,-500 498.333,-500 502,-503.667 502,-507.333 502,-507.333 502,-514.667 502,-514.667 502,-518.333 498.333,-522 494.667,-522"/>
<text text-anchor="middle" x="475" y="-507.9" font-family="Times,serif" font-size="12.00" fill="#780006">retry</text>
</a>
</g>
</g>
<!-- /SM_ROOT/NAVIGATION_TO_CHARGE_WITH_CONTROL/COMPLETE_NAVIGATION_FOR_CHARGING/NAVIGATE_BEFORE_STATION/__proxy__ -->
<g id="node11" class="node"><title>/SM_ROOT/NAVIGATION_TO_CHARGE_WITH_CONTROL/COMPLETE_NAVIGATION_FOR_CHARGING/NAVIGATE_BEFORE_STATION/__proxy__</title>
<g id="a_node11"><a xlink:href="/SM_ROOT/NAVIGATION_TO_CHARGE_WITH_CONTROL/COMPLETE_NAVIGATION_FOR_CHARGING/NAVIGATE_BEFORE_STATION" xlink:title="NAVIGATE_BEFORE_STATION">
<text text-anchor="middle" x="179" y="-328.6" font-family="Times,serif" font-size="18.00">NAVIGATE_BEFORE_STATION</text>
</a>
</g>
</g>
<!-- /SM_ROOT/NAVIGATION_TO_CHARGE_WITH_CONTROL/COMPLETE_NAVIGATION_FOR_CHARGING/__proxy__&#45;&gt;/SM_ROOT/NAVIGATION_TO_CHARGE_WITH_CONTROL/COMPLETE_NAVIGATION_FOR_CHARGING/NAVIGATE_BEFORE_STATION/__proxy__ -->
<g id="edge9" class="edge"><title>/SM_ROOT/NAVIGATION_TO_CHARGE_WITH_CONTROL/COMPLETE_NAVIGATION_FOR_CHARGING/__proxy__&#45;&gt;/SM_ROOT/NAVIGATION_TO_CHARGE_WITH_CONTROL/COMPLETE_NAVIGATION_FOR_CHARGING/NAVIGATE_BEFORE_STATION/__proxy__</title>
<g id="a_edge9"><a xlink:href="/SM_ROOT/NAVIGATION_TO_CHARGE_WITH_CONTROL/COMPLETE_NAVIGATION_FOR_CHARGING/__proxy__::/SM_ROOT/NAVIGATION_TO_CHARGE_WITH_CONTROL/COMPLETE_NAVIGATION_FOR_CHARGING/NAVIGATE_BEFORE_STATION">
<path fill="none" stroke="black" stroke-width="2" d="M208.531,-405.719C203.137,-392.619 194.788,-372.343 188.342,-356.687"/>
<polygon fill="black" stroke="black" stroke-width="2" points="195.263,-362.135 187.43,-355 189.104,-365.462 195.263,-362.135"/>
</a>
</g>
</g>
<!-- /SM_ROOT/NAVIGATION_TO_CHARGE_WITH_CONTROL/COMPLETE_NAVIGATION_FOR_CHARGING:preempted -->
<g id="node7" class="node"><title>/SM_ROOT/NAVIGATION_TO_CHARGE_WITH_CONTROL/COMPLETE_NAVIGATION_FOR_CHARGING:preempted</title>
<g id="a_node7"><a xlink:href="/SM_ROOT/NAVIGATION_TO_CHARGE_WITH_CONTROL/COMPLETE_NAVIGATION_FOR_CHARGING:preempted" xlink:title="preempted">
<path fill="#fe464f" stroke="#780006" d="M260.667,-54C260.667,-54 209.333,-54 209.333,-54 205.667,-54 202,-50.3333 202,-46.6667 202,-46.6667 202,-39.3333 202,-39.3333 202,-35.6667 205.667,-32 209.333,-32 209.333,-32 260.667,-32 260.667,-32 264.333,-32 268,-35.6667 268,-39.3333 268,-39.3333 268,-46.6667 268,-46.6667 268,-50.3333 264.333,-54 260.667,-54"/>
<text text-anchor="middle" x="235" y="-39.9" font-family="Times,serif" font-size="12.00" fill="#780006">preempted</text>
</a>
</g>
</g>
<!-- /SM_ROOT/NAVIGATION_TO_CHARGE_WITH_CONTROL/COMPLETE_NAVIGATION_FOR_CHARGING:succeeded -->
<g id="node8" class="node"><title>/SM_ROOT/NAVIGATION_TO_CHARGE_WITH_CONTROL/COMPLETE_NAVIGATION_FOR_CHARGING:succeeded</title>
<g id="a_node8"><a xlink:href="/SM_ROOT/NAVIGATION_TO_CHARGE_WITH_CONTROL/COMPLETE_NAVIGATION_FOR_CHARGING:succeeded" xlink:title="succeeded">
<path fill="#fe464f" stroke="#780006" d="M362.167,-54C362.167,-54 311.833,-54 311.833,-54 308.167,-54 304.5,-50.3333 304.5,-46.6667 304.5,-46.6667 304.5,-39.3333 304.5,-39.3333 304.5,-35.6667 308.167,-32 311.833,-32 311.833,-32 362.167,-32 362.167,-32 365.833,-32 369.5,-35.6667 369.5,-39.3333 369.5,-39.3333 369.5,-46.6667 369.5,-46.6667 369.5,-50.3333 365.833,-54 362.167,-54"/>
<text text-anchor="middle" x="337" y="-39.9" font-family="Times,serif" font-size="12.00" fill="#780006">succeeded</text>
</a>
</g>
</g>
<!-- /SM_ROOT/NAVIGATION_TO_CHARGE_WITH_CONTROL/COMPLETE_NAVIGATION_FOR_CHARGING:aborted -->
<g id="node9" class="node"><title>/SM_ROOT/NAVIGATION_TO_CHARGE_WITH_CONTROL/COMPLETE_NAVIGATION_FOR_CHARGING:aborted</title>
<g id="a_node9"><a xlink:href="/SM_ROOT/NAVIGATION_TO_CHARGE_WITH_CONTROL/COMPLETE_NAVIGATION_FOR_CHARGING:aborted" xlink:title="aborted">
<path fill="#fe464f" stroke="#780006" d="M158.667,-54C158.667,-54 119.333,-54 119.333,-54 115.667,-54 112,-50.3333 112,-46.6667 112,-46.6667 112,-39.3333 112,-39.3333 112,-35.6667 115.667,-32 119.333,-32 119.333,-32 158.667,-32 158.667,-32 162.333,-32 166,-35.6667 166,-39.3333 166,-39.3333 166,-46.6667 166,-46.6667 166,-50.3333 162.333,-54 158.667,-54"/>
<text text-anchor="middle" x="139" y="-39.9" font-family="Times,serif" font-size="12.00" fill="#780006">aborted</text>
</a>
</g>
</g>
<!-- /SM_ROOT/NAVIGATION_TO_CHARGE_WITH_CONTROL/COMPLETE_NAVIGATION_FOR_CHARGING/NAVIGATE_TO_PLUG_AND_CONTROL/__proxy__ -->
<g id="node10" class="node"><title>/SM_ROOT/NAVIGATION_TO_CHARGE_WITH_CONTROL/COMPLETE_NAVIGATION_FOR_CHARGING/NAVIGATE_TO_PLUG_AND_CONTROL/__proxy__</title>
<g id="a_node10"><a xlink:href="/SM_ROOT/NAVIGATION_TO_CHARGE_WITH_CONTROL/COMPLETE_NAVIGATION_FOR_CHARGING/NAVIGATE_TO_PLUG_AND_CONTROL" xlink:title="NAVIGATE_TO_PLUG_AND_CONTROL">
<text text-anchor="middle" x="285" y="-233.6" font-family="Times,serif" font-size="18.00">NAVIGATE_TO_PLUG_AND_CONTROL</text>
</a>
</g>
</g>
<!-- /SM_ROOT/NAVIGATION_TO_CHARGE_WITH_CONTROL/COMPLETE_NAVIGATION_FOR_CHARGING/NAVIGATE_TO_PLUG_AND_CONTROL/__proxy__&#45;&gt;/SM_ROOT/NAVIGATION_TO_CHARGE_WITH_CONTROL/COMPLETE_NAVIGATION_FOR_CHARGING:preempted -->
<g id="edge1" class="edge"><title>/SM_ROOT/NAVIGATION_TO_CHARGE_WITH_CONTROL/COMPLETE_NAVIGATION_FOR_CHARGING/NAVIGATE_TO_PLUG_AND_CONTROL/__proxy__&#45;&gt;/SM_ROOT/NAVIGATION_TO_CHARGE_WITH_CONTROL/COMPLETE_NAVIGATION_FOR_CHARGING:preempted</title>
<g id="a_edge1"><a xlink:href="/SM_ROOT/NAVIGATION_TO_CHARGE_WITH_CONTROL/COMPLETE_NAVIGATION_FOR_CHARGING/NAVIGATE_TO_PLUG_AND_CONTROL:preempted:/SM_ROOT/NAVIGATION_TO_CHARGE_WITH_CONTROL/COMPLETE_NAVIGATION_FOR_CHARGING/preempted" xlink:title="preempted">
<path fill="none" stroke="#000000" stroke-width="2" stroke-opacity="0.333333" d="M254.2,-216.381C235.845,-202.133 214.192,-181.392 204,-157 190.686,-125.138 208.659,-85.8461 222.281,-62.9871"/>
<polygon fill="#000000" fill-opacity="0.333333" stroke="#000000" stroke-width="2" stroke-opacity="0.333333" points="225.402,-64.5977 227.748,-54.266 219.471,-60.8794 225.402,-64.5977"/>
</a>
</g>
<g id="a_edge1&#45;label"><a xlink:href="/SM_ROOT/NAVIGATION_TO_CHARGE_WITH_CONTROL/COMPLETE_NAVIGATION_FOR_CHARGING/NAVIGATE_TO_PLUG_AND_CONTROL:preempted:/SM_ROOT/NAVIGATION_TO_CHARGE_WITH_CONTROL/COMPLETE_NAVIGATION_FOR_CHARGING/preempted" xlink:title="preempted">
<text text-anchor="middle" x="230" y="-135.9" font-family="Times,serif" font-size="12.00">preempted</text>
</a>
</g>
</g>
<!-- /SM_ROOT/NAVIGATION_TO_CHARGE_WITH_CONTROL/COMPLETE_NAVIGATION_FOR_CHARGING/NAVIGATE_TO_PLUG_AND_CONTROL/__proxy__&#45;&gt;/SM_ROOT/NAVIGATION_TO_CHARGE_WITH_CONTROL/COMPLETE_NAVIGATION_FOR_CHARGING:aborted -->
<g id="edge2" class="edge"><title>/SM_ROOT/NAVIGATION_TO_CHARGE_WITH_CONTROL/COMPLETE_NAVIGATION_FOR_CHARGING/NAVIGATE_TO_PLUG_AND_CONTROL/__proxy__&#45;&gt;/SM_ROOT/NAVIGATION_TO_CHARGE_WITH_CONTROL/COMPLETE_NAVIGATION_FOR_CHARGING:aborted</title>
<g id="a_edge2"><a xlink:href="/SM_ROOT/NAVIGATION_TO_CHARGE_WITH_CONTROL/COMPLETE_NAVIGATION_FOR_CHARGING/NAVIGATE_TO_PLUG_AND_CONTROL:aborted:/SM_ROOT/NAVIGATION_TO_CHARGE_WITH_CONTROL/COMPLETE_NAVIGATION_FOR_CHARGING/aborted" xlink:title="aborted">
<path fill="none" stroke="#000000" stroke-width="2" stroke-opacity="0.333333" d="M245.377,-216.325C234.423,-210.331 222.629,-203.613 212,-197 198.861,-188.825 163.085,-170.194 155,-157 137.483,-128.415 136.132,-88.2518 137.23,-64.3033"/>
<polygon fill="#000000" fill-opacity="0.333333" stroke="#000000" stroke-width="2" stroke-opacity="0.333333" points="140.727,-64.4609 137.881,-54.2554 133.741,-64.0081 140.727,-64.4609"/>
</a>
</g>
<g id="a_edge2&#45;label"><a xlink:href="/SM_ROOT/NAVIGATION_TO_CHARGE_WITH_CONTROL/COMPLETE_NAVIGATION_FOR_CHARGING/NAVIGATE_TO_PLUG_AND_CONTROL:aborted:/SM_ROOT/NAVIGATION_TO_CHARGE_WITH_CONTROL/COMPLETE_NAVIGATION_FOR_CHARGING/aborted" xlink:title="aborted">
<text text-anchor="middle" x="168" y="-135.9" font-family="Times,serif" font-size="12.00">aborted</text>
</a>
</g>
</g>
<!-- /SM_ROOT/NAVIGATION_TO_CHARGE_WITH_CONTROL/COMPLETE_NAVIGATION_FOR_CHARGING/STOP_ROBOT -->
<g id="node12" class="node"><title>/SM_ROOT/NAVIGATION_TO_CHARGE_WITH_CONTROL/COMPLETE_NAVIGATION_FOR_CHARGING/STOP_ROBOT</title>
<g id="a_node12"><a xlink:href="/SM_ROOT/NAVIGATION_TO_CHARGE_WITH_CONTROL/COMPLETE_NAVIGATION_FOR_CHARGING/STOP_ROBOT" xlink:title="STOP_ROBOT">
<ellipse fill="none" stroke="#000000" stroke-width="2" cx="396" cy="-139" rx="66.0889" ry="18"/>
<text text-anchor="middle" x="396" y="-135.3" font-family="Times,serif" font-size="14.00">STOP_ROBOT</text>
</a>
</g>
</g>
<!-- /SM_ROOT/NAVIGATION_TO_CHARGE_WITH_CONTROL/COMPLETE_NAVIGATION_FOR_CHARGING/NAVIGATE_TO_PLUG_AND_CONTROL/__proxy__&#45;&gt;/SM_ROOT/NAVIGATION_TO_CHARGE_WITH_CONTROL/COMPLETE_NAVIGATION_FOR_CHARGING/STOP_ROBOT -->
<g id="edge3" class="edge"><title>/SM_ROOT/NAVIGATION_TO_CHARGE_WITH_CONTROL/COMPLETE_NAVIGATION_FOR_CHARGING/NAVIGATE_TO_PLUG_AND_CONTROL/__proxy__&#45;&gt;/SM_ROOT/NAVIGATION_TO_CHARGE_WITH_CONTROL/COMPLETE_NAVIGATION_FOR_CHARGING/STOP_ROBOT</title>
<g id="a_edge3"><a xlink:href="/SM_ROOT/NAVIGATION_TO_CHARGE_WITH_CONTROL/COMPLETE_NAVIGATION_FOR_CHARGING/NAVIGATE_TO_PLUG_AND_CONTROL:succeeded:/SM_ROOT/NAVIGATION_TO_CHARGE_WITH_CONTROL/COMPLETE_NAVIGATION_FOR_CHARGING/STOP_ROBOT" xlink:title="succeeded">
<path fill="none" stroke="black" stroke-width="2" d="M308.645,-216.337C326.526,-200.712 351.075,-179.259 369.597,-163.073"/>
<polygon fill="black" stroke="black" stroke-width="2" points="371.969,-165.648 377.196,-156.432 367.363,-160.377 371.969,-165.648"/>
</a>
</g>
<g id="a_edge3&#45;label"><a xlink:href="/SM_ROOT/NAVIGATION_TO_CHARGE_WITH_CONTROL/COMPLETE_NAVIGATION_FOR_CHARGING/NAVIGATE_TO_PLUG_AND_CONTROL:succeeded:/SM_ROOT/NAVIGATION_TO_CHARGE_WITH_CONTROL/COMPLETE_NAVIGATION_FOR_CHARGING/STOP_ROBOT" xlink:title="succeeded">
<text text-anchor="middle" x="378.0" y="-187.4" font-family="Times,serif" font-size="15.00">succeeded</text>
</a>
</g>
</g>
<!-- /SM_ROOT/NAVIGATION_TO_CHARGE_WITH_CONTROL/COMPLETE_NAVIGATION_FOR_CHARGING/NAVIGATE_BEFORE_STATION/__proxy__&#45;&gt;/SM_ROOT/NAVIGATION_TO_CHARGE_WITH_CONTROL/COMPLETE_NAVIGATION_FOR_CHARGING:preempted -->
<g id="edge4" class="edge"><title>/SM_ROOT/NAVIGATION_TO_CHARGE_WITH_CONTROL/COMPLETE_NAVIGATION_FOR_CHARGING/NAVIGATE_BEFORE_STATION/__proxy__&#45;&gt;/SM_ROOT/NAVIGATION_TO_CHARGE_WITH_CONTROL/COMPLETE_NAVIGATION_FOR_CHARGING:preempted</title>
<g id="a_edge4"><a xlink:href="/SM_ROOT/NAVIGATION_TO_CHARGE_WITH_CONTROL/COMPLETE_NAVIGATION_FOR_CHARGING/NAVIGATE_BEFORE_STATION:preempted:/SM_ROOT/NAVIGATION_TO_CHARGE_WITH_CONTROL/COMPLETE_NAVIGATION_FOR_CHARGING/preempted" xlink:title="preempted">
<path fill="none" stroke="#000000" stroke-width="2" stroke-opacity="0.333333" d="M144.437,-311.044C127.337,-298.578 108.388,-281.081 99,-260 91.044,-242.136 95.656,-235.268 99,-216 106.669,-171.816 106.438,-157.132 133,-121 152.521,-94.4468 183.727,-72.7847 206.487,-59.2771"/>
<polygon fill="#000000" fill-opacity="0.333333" stroke="#000000" stroke-width="2" stroke-opacity="0.333333" points="208.442,-62.1903 215.361,-54.1668 204.949,-56.1242 208.442,-62.1903"/>
</a>
</g>
<g id="a_edge4&#45;label"><a xlink:href="/SM_ROOT/NAVIGATION_TO_CHARGE_WITH_CONTROL/COMPLETE_NAVIGATION_FOR_CHARGING/NAVIGATE_BEFORE_STATION:preempted:/SM_ROOT/NAVIGATION_TO_CHARGE_WITH_CONTROL/COMPLETE_NAVIGATION_FOR_CHARGING/preempted" xlink:title="preempted">
<text text-anchor="middle" x="133" y="-187.4" font-family="Times,serif" font-size="12.00">preempted</text>
</a>
</g>
</g>
<!-- /SM_ROOT/NAVIGATION_TO_CHARGE_WITH_CONTROL/COMPLETE_NAVIGATION_FOR_CHARGING/NAVIGATE_BEFORE_STATION/__proxy__&#45;&gt;/SM_ROOT/NAVIGATION_TO_CHARGE_WITH_CONTROL/COMPLETE_NAVIGATION_FOR_CHARGING:aborted -->
<g id="edge5" class="edge"><title>/SM_ROOT/NAVIGATION_TO_CHARGE_WITH_CONTROL/COMPLETE_NAVIGATION_FOR_CHARGING/NAVIGATE_BEFORE_STATION/__proxy__&#45;&gt;/SM_ROOT/NAVIGATION_TO_CHARGE_WITH_CONTROL/COMPLETE_NAVIGATION_FOR_CHARGING:aborted</title>
<g id="a_edge5"><a xlink:href="/SM_ROOT/NAVIGATION_TO_CHARGE_WITH_CONTROL/COMPLETE_NAVIGATION_FOR_CHARGING/NAVIGATE_BEFORE_STATION:aborted:/SM_ROOT/NAVIGATION_TO_CHARGE_WITH_CONTROL/COMPLETE_NAVIGATION_FOR_CHARGING/aborted" xlink:title="aborted">
<path fill="none" stroke="#000000" stroke-width="2" stroke-opacity="0.333333" d="M92.0122,-311.149C83.2636,-306.092 75.3012,-299.808 69,-292 21.0617,-232.599 21.8554,-190.689 53,-121 64.9663,-94.2241 91.3554,-72.8985 111.767,-59.542"/>
<polygon fill="#000000" fill-opacity="0.333333" stroke="#000000" stroke-width="2" stroke-opacity="0.333333" points="113.759,-62.4238 120.37,-54.1441 110.039,-56.4944 113.759,-62.4238"/>
</a>
</g>
<g id="a_edge5&#45;label"><a xlink:href="/SM_ROOT/NAVIGATION_TO_CHARGE_WITH_CONTROL/COMPLETE_NAVIGATION_FOR_CHARGING/NAVIGATE_BEFORE_STATION:aborted:/SM_ROOT/NAVIGATION_TO_CHARGE_WITH_CONTROL/COMPLETE_NAVIGATION_FOR_CHARGING/aborted" xlink:title="aborted">
<text text-anchor="middle" x="55" y="-187.4" font-family="Times,serif" font-size="12.00">aborted</text>
</a>
</g>
</g>
<!-- /SM_ROOT/NAVIGATION_TO_CHARGE_WITH_CONTROL/COMPLETE_NAVIGATION_FOR_CHARGING/NAVIGATE_BEFORE_STATION/__proxy__&#45;&gt;/SM_ROOT/NAVIGATION_TO_CHARGE_WITH_CONTROL/COMPLETE_NAVIGATION_FOR_CHARGING/NAVIGATE_TO_PLUG_AND_CONTROL/__proxy__ -->
<g id="edge6" class="edge"><title>/SM_ROOT/NAVIGATION_TO_CHARGE_WITH_CONTROL/COMPLETE_NAVIGATION_FOR_CHARGING/NAVIGATE_BEFORE_STATION/__proxy__&#45;&gt;/SM_ROOT/NAVIGATION_TO_CHARGE_WITH_CONTROL/COMPLETE_NAVIGATION_FOR_CHARGING/NAVIGATE_TO_PLUG_AND_CONTROL/__proxy__</title>
<g id="a_edge6"><a xlink:href="/SM_ROOT/NAVIGATION_TO_CHARGE_WITH_CONTROL/COMPLETE_NAVIGATION_FOR_CHARGING/NAVIGATE_BEFORE_STATION:succeeded:/SM_ROOT/NAVIGATION_TO_CHARGE_WITH_CONTROL/COMPLETE_NAVIGATION_FOR_CHARGING/NAVIGATE_TO_PLUG_AND_CONTROL" xlink:title="succeeded">
<path fill="none" stroke="black" stroke-width="2" d="M202.935,-311C218.047,-297.742 237.721,-280.48 254.018,-266.182"/>
<polygon fill="black" stroke="black" stroke-width="2" points="256.353,-268.79 261.562,-259.564 251.737,-263.528 256.353,-268.79"/>
</a>
</g>
<g id="a_edge6&#45;label"><a xlink:href="/SM_ROOT/NAVIGATION_TO_CHARGE_WITH_CONTROL/COMPLETE_NAVIGATION_FOR_CHARGING/NAVIGATE_BEFORE_STATION:succeeded:/SM_ROOT/NAVIGATION_TO_CHARGE_WITH_CONTROL/COMPLETE_NAVIGATION_FOR_CHARGING/NAVIGATE_TO_PLUG_AND_CONTROL" xlink:title="succeeded">
<text text-anchor="middle" x="272.0" y="-282.4" font-family="Times,serif" font-size="15.00">succeeded</text>
</a>
</g>
</g>
<!-- /SM_ROOT/NAVIGATION_TO_CHARGE_WITH_CONTROL/COMPLETE_NAVIGATION_FOR_CHARGING/STOP_ROBOT&#45;&gt;/SM_ROOT/NAVIGATION_TO_CHARGE_WITH_CONTROL/COMPLETE_NAVIGATION_FOR_CHARGING:preempted -->
<g id="edge8" class="edge"><title>/SM_ROOT/NAVIGATION_TO_CHARGE_WITH_CONTROL/COMPLETE_NAVIGATION_FOR_CHARGING/STOP_ROBOT&#45;&gt;/SM_ROOT/NAVIGATION_TO_CHARGE_WITH_CONTROL/COMPLETE_NAVIGATION_FOR_CHARGING:preempted</title>
<g id="a_edge8"><a xlink:href="/SM_ROOT/NAVIGATION_TO_CHARGE_WITH_CONTROL/COMPLETE_NAVIGATION_FOR_CHARGING/STOP_ROBOT:preempted:/SM_ROOT/NAVIGATION_TO_CHARGE_WITH_CONTROL/COMPLETE_NAVIGATION_FOR_CHARGING/preempted" xlink:title="preempted">
<path fill="none" stroke="#000000" stroke-width="2" stroke-opacity="0.333333" d="M360.755,-123.54C342.73,-115.642 320.707,-105.199 302,-94 285.451,-84.0926 268.029,-70.9977 255.1,-60.6943"/>
<polygon fill="#000000" fill-opacity="0.333333" stroke="#000000" stroke-width="2" stroke-opacity="0.333333" points="257.282,-57.9577 247.306,-54.3882 252.879,-63.3994 257.282,-57.9577"/>
</a>
</g>
<g id="a_edge8&#45;label"><a xlink:href="/SM_ROOT/NAVIGATION_TO_CHARGE_WITH_CONTROL/COMPLETE_NAVIGATION_FOR_CHARGING/STOP_ROBOT:preempted:/SM_ROOT/NAVIGATION_TO_CHARGE_WITH_CONTROL/COMPLETE_NAVIGATION_FOR_CHARGING/preempted" xlink:title="preempted">
<text text-anchor="middle" x="327" y="-84.4" font-family="Times,serif" font-size="12.00">preempted</text>
</a>
</g>
</g>
<!-- /SM_ROOT/NAVIGATION_TO_CHARGE_WITH_CONTROL/COMPLETE_NAVIGATION_FOR_CHARGING/STOP_ROBOT&#45;&gt;/SM_ROOT/NAVIGATION_TO_CHARGE_WITH_CONTROL/COMPLETE_NAVIGATION_FOR_CHARGING:succeeded -->
<g id="edge7" class="edge"><title>/SM_ROOT/NAVIGATION_TO_CHARGE_WITH_CONTROL/COMPLETE_NAVIGATION_FOR_CHARGING/STOP_ROBOT&#45;&gt;/SM_ROOT/NAVIGATION_TO_CHARGE_WITH_CONTROL/COMPLETE_NAVIGATION_FOR_CHARGING:succeeded</title>
<g id="a_edge7"><a xlink:href="/SM_ROOT/NAVIGATION_TO_CHARGE_WITH_CONTROL/COMPLETE_NAVIGATION_FOR_CHARGING/STOP_ROBOT:velocity_published:/SM_ROOT/NAVIGATION_TO_CHARGE_WITH_CONTROL/COMPLETE_NAVIGATION_FOR_CHARGING/succeeded" xlink:title="velocity_published">
<path fill="none" stroke="#000000" stroke-width="2" stroke-opacity="1.0" d="M385.452,-121.195C375.104,-104.709 359.362,-79.6273 348.65,-62.5617"/>
<polygon fill="#000000" fill-opacity="1.0" stroke="#000000" stroke-width="2" stroke-opacity="1.0" points="351.564,-60.6201 343.283,-54.0109 345.635,-64.3415 351.564,-60.6201"/>
</a>
</g>
<g id="a_edge7&#45;label"><a xlink:href="/SM_ROOT/NAVIGATION_TO_CHARGE_WITH_CONTROL/COMPLETE_NAVIGATION_FOR_CHARGING/STOP_ROBOT:velocity_published:/SM_ROOT/NAVIGATION_TO_CHARGE_WITH_CONTROL/COMPLETE_NAVIGATION_FOR_CHARGING/succeeded" xlink:title="velocity_published">
<text text-anchor="middle" x="411" y="-60.0" font-family="Times,serif" font-size="15.00">velocity_published</text>
</a>
</g>
</g>
</g>
</svg>
