<?xml version="1.0" encoding="UTF-8" standalone="no"?>
<!DOCTYPE svg PUBLIC "-//W3C//DTD SVG 1.1//EN"
 "http://www.w3.org/Graphics/SVG/1.1/DTD/svg11.dtd">
<!-- Generated by graphviz version 2.38.0 (20140413.2041)
 -->
<!-- Title: %3 Pages: 1 -->
<svg width="631pt" height="459pt"
 viewBox="0.00 0.00 631.00 459.00" xmlns="http://www.w3.org/2000/svg" xmlns:xlink="http://www.w3.org/1999/xlink">
<g id="graph0" class="graph" transform="scale(1 1) rotate(0) translate(4 455)">
<title>%3</title>
<polygon fill="white" stroke="none" points="-4,4 -4,-455 747,-455 747,4 -4,4"/>
<g id="clust1" class="cluster"><title>cluster_/SM_ROOT/NAVIGATION_LOOP</title>
<polygon fill="none" stroke="none" points="8,-8 8,-443 608,-443 608,-8 8,-8"/>
</g>
<g id="clust2" class="cluster"><title>cluster_/SM_ROOT/NAVIGATION_LOOP/__outcomes__</title>
<path fill="none" stroke="#ffffff" d="M257,-397C257,-397 585,-397 585,-397 591,-397 597,-403 597,-409 597,-409 597,-423 597,-423 597,-429 591,-435 585,-435 585,-435 257,-435 257,-435 251,-435 245,-429 245,-423 245,-423 245,-409 245,-409 245,-403 251,-397 257,-397"/>
</g>
<g id="clust3" class="cluster"><title>cluster_/SM_ROOT/NAVIGATION_LOOP/WHOLE_NAVIGATION</title>
<path fill="none" stroke="#000000" stroke-width="2" d="M228,-16C228,-16 588,-16 588,-16 594,-16 600,-22 600,-28 600,-28 600,-335 600,-335 600,-341 594,-347 588,-347 588,-347 228,-347 228,-347 222,-347 216,-341 216,-335 216,-335 216,-28 216,-28 216,-22 222,-16 228,-16"/>
</g>
<g id="clust4" class="cluster"><title>cluster_/SM_ROOT/NAVIGATION_LOOP/WHOLE_NAVIGATION/__outcomes__</title>
<path fill="none" stroke="#ffffff" d="M236,-24C236,-24 580,-24 580,-24 586,-24 592,-30 592,-36 592,-36 592,-50 592,-50 592,-56 586,-62 580,-62 580,-62 236,-62 236,-62 230,-62 224,-56 224,-50 224,-50 224,-36 224,-36 224,-30 230,-24 236,-24"/>
</g>
<g id="clust5" class="cluster"><title>cluster_/SM_ROOT/NAVIGATION_LOOP/WHOLE_NAVIGATION/NAVIGATION</title>
<path fill="none" stroke="#000000" stroke-width="2" d="M405,-113C405,-113 527,-113 527,-113 533,-113 539,-119 539,-125 539,-125 539,-145 539,-145 539,-151 533,-157 527,-157 527,-157 405,-157 405,-157 399,-157 393,-151 393,-145 393,-145 393,-125 393,-125 393,-119 399,-113 405,-113"/>
</g>
<!-- /SM_ROOT/NAVIGATION_LOOP/__proxy__ -->
<g id="node1" class="node"><title>/SM_ROOT/NAVIGATION_LOOP/__proxy__</title>
<g id="a_node1"><a xlink:href="/SM_ROOT/NAVIGATION_LOOP" xlink:title="NAVIGATION_LOOP">
<text text-anchor="middle" x="120" y="-411.6" font-family="Times,serif" font-size="18.00">NAVIGATION_LOOP</text>
</a>
</g>
</g>
<!-- /SM_ROOT/NAVIGATION_LOOP/WAIT_FOR_CHARGE -->
<g id="node6" class="node"><title>/SM_ROOT/NAVIGATION_LOOP/WAIT_FOR_CHARGE</title>
<g id="a_node6"><a xlink:href="/SM_ROOT/NAVIGATION_LOOP/WAIT_FOR_CHARGE" xlink:title="WAIT_FOR_CHARGE">
<ellipse fill="none" stroke="#000000" stroke-width="2" cx="112" cy="-325" rx="96.3833" ry="18"/>
<text text-anchor="middle" x="112" y="-321.3" font-family="Times,serif" font-size="14.00">WAIT_FOR_CHARGE</text>
</a>
</g>
</g>
<!-- /SM_ROOT/NAVIGATION_LOOP/__proxy__&#45;&gt;/SM_ROOT/NAVIGATION_LOOP/WAIT_FOR_CHARGE -->
<g id="edge7" class="edge"><title>/SM_ROOT/NAVIGATION_LOOP/__proxy__&#45;&gt;/SM_ROOT/NAVIGATION_LOOP/WAIT_FOR_CHARGE</title>
<g id="a_edge7"><a xlink:href="/SM_ROOT/NAVIGATION_LOOP/__proxy__::/SM_ROOT/NAVIGATION_LOOP/WAIT_FOR_CHARGE">
<path fill="none" stroke="black" stroke-width="2" d="M118.82,-401.868C117.672,-389.096 115.893,-369.309 114.44,-353.146"/>
<polygon fill="black" stroke="black" stroke-width="2" points="117.923,-352.803 113.542,-343.157 110.952,-353.43 117.923,-352.803"/>
</a>
</g>
</g>
<!-- /SM_ROOT/NAVIGATION_LOOP/WHOLE_NAVIGATION/__proxy__ -->
<g id="node7" class="node"><title>/SM_ROOT/NAVIGATION_LOOP/WHOLE_NAVIGATION/__proxy__</title>
<g id="a_node7"><a xlink:href="/SM_ROOT/NAVIGATION_LOOP/WHOLE_NAVIGATION" xlink:title="WHOLE_NAVIGATION">
<text text-anchor="middle" x="346" y="-320.6" font-family="Times,serif" font-size="18.00">WHOLE_NAVIGATION</text>
</a>
</g>
</g>
<!-- /SM_ROOT/NAVIGATION_LOOP/__proxy__&#45;&gt;/SM_ROOT/NAVIGATION_LOOP/WHOLE_NAVIGATION/__proxy__ -->
<g id="edge8" class="edge"><title>/SM_ROOT/NAVIGATION_LOOP/__proxy__&#45;&gt;/SM_ROOT/NAVIGATION_LOOP/WHOLE_NAVIGATION/__proxy__</title>
<g id="a_edge8"><a xlink:href="/SM_ROOT/NAVIGATION_LOOP/__proxy__::/SM_ROOT/NAVIGATION_LOOP/WHOLE_NAVIGATION">
<path fill="none" stroke="black" stroke-width="2" d="M153.347,-401.868C187.491,-388.422 241.376,-367.201 283.486,-350.618"/>
<polygon fill="black" stroke="black" stroke-width="2" points="284.803,-353.861 292.825,-346.941 282.238,-347.348 284.803,-353.861"/>
</a>
</g>
</g>
<!-- /SM_ROOT/NAVIGATION_LOOP:charge -->
<g id="node2" class="node"><title>/SM_ROOT/NAVIGATION_LOOP:charge</title>
<g id="a_node2"><a xlink:href="/SM_ROOT/NAVIGATION_LOOP:charge" xlink:title="charge">
<path fill="#fe464f" stroke="#780006" d="M581.667,-427C581.667,-427 542.333,-427 542.333,-427 538.667,-427 535,-423.333 535,-419.667 535,-419.667 535,-412.333 535,-412.333 535,-408.667 538.667,-405 542.333,-405 542.333,-405 581.667,-405 581.667,-405 585.333,-405 589,-408.667 589,-412.333 589,-412.333 589,-419.667 589,-419.667 589,-423.333 585.333,-427 581.667,-427"/>
<text text-anchor="middle" x="562" y="-412.9" font-family="Times,serif" font-size="12.00" fill="#780006">charge</text>
</a>
</g>
</g>
<!-- /SM_ROOT/NAVIGATION_LOOP:preempted -->
<g id="node3" class="node"><title>/SM_ROOT/NAVIGATION_LOOP:preempted</title>
<g id="a_node3"><a xlink:href="/SM_ROOT/NAVIGATION_LOOP:preempted" xlink:title="preempted">
<path fill="#fe464f" stroke="#780006" d="M491.667,-427C491.667,-427 440.333,-427 440.333,-427 436.667,-427 433,-423.333 433,-419.667 433,-419.667 433,-412.333 433,-412.333 433,-408.667 436.667,-405 440.333,-405 440.333,-405 491.667,-405 491.667,-405 495.333,-405 499,-408.667 499,-412.333 499,-412.333 499,-419.667 499,-419.667 499,-423.333 495.333,-427 491.667,-427"/>
<text text-anchor="middle" x="466" y="-412.9" font-family="Times,serif" font-size="12.00" fill="#780006">preempted</text>
</a>
</g>
</g>
<!-- /SM_ROOT/NAVIGATION_LOOP:loop -->
<g id="node4" class="node"><title>/SM_ROOT/NAVIGATION_LOOP:loop</title>
<g id="a_node4"><a xlink:href="/SM_ROOT/NAVIGATION_LOOP:loop" xlink:title="loop">
<path fill="#fe464f" stroke="#780006" d="M389.667,-427C389.667,-427 350.333,-427 350.333,-427 346.667,-427 343,-423.333 343,-419.667 343,-419.667 343,-412.333 343,-412.333 343,-408.667 346.667,-405 350.333,-405 350.333,-405 389.667,-405 389.667,-405 393.333,-405 397,-408.667 397,-412.333 397,-412.333 397,-419.667 397,-419.667 397,-423.333 393.333,-427 389.667,-427"/>
<text text-anchor="middle" x="370" y="-412.9" font-family="Times,serif" font-size="12.00" fill="#780006">loop</text>
</a>
</g>
</g>
<!-- /SM_ROOT/NAVIGATION_LOOP:aborted -->
<g id="node5" class="node"><title>/SM_ROOT/NAVIGATION_LOOP:aborted</title>
<g id="a_node5"><a xlink:href="/SM_ROOT/NAVIGATION_LOOP:aborted" xlink:title="aborted">
<path fill="#fe464f" stroke="#780006" d="M299.667,-427C299.667,-427 260.333,-427 260.333,-427 256.667,-427 253,-423.333 253,-419.667 253,-419.667 253,-412.333 253,-412.333 253,-408.667 256.667,-405 260.333,-405 260.333,-405 299.667,-405 299.667,-405 303.333,-405 307,-408.667 307,-412.333 307,-412.333 307,-419.667 307,-419.667 307,-423.333 303.333,-427 299.667,-427"/>
<text text-anchor="middle" x="280" y="-412.9" font-family="Times,serif" font-size="12.00" fill="#780006">aborted</text>
</a>
</g>
</g>
<!-- /SM_ROOT/NAVIGATION_LOOP/WHOLE_NAVIGATION/WAIT_FOR_GOAL -->
<g id="node12" class="node"><title>/SM_ROOT/NAVIGATION_LOOP/WHOLE_NAVIGATION/WAIT_FOR_GOAL</title>
<g id="a_node12"><a xlink:href="/SM_ROOT/NAVIGATION_LOOP/WHOLE_NAVIGATION/WAIT_FOR_GOAL" xlink:title="WAIT_FOR_GOAL">
<ellipse fill="none" stroke="#000000" stroke-width="2" cx="346" cy="-234" rx="84.485" ry="18"/>
<text text-anchor="middle" x="346" y="-230.3" font-family="Times,serif" font-size="14.00">WAIT_FOR_GOAL</text>
</a>
</g>
</g>
<!-- /SM_ROOT/NAVIGATION_LOOP/WHOLE_NAVIGATION/__proxy__&#45;&gt;/SM_ROOT/NAVIGATION_LOOP/WHOLE_NAVIGATION/WAIT_FOR_GOAL -->
<g id="edge6" class="edge"><title>/SM_ROOT/NAVIGATION_LOOP/WHOLE_NAVIGATION/__proxy__&#45;&gt;/SM_ROOT/NAVIGATION_LOOP/WHOLE_NAVIGATION/WAIT_FOR_GOAL</title>
<g id="a_edge6"><a xlink:href="/SM_ROOT/NAVIGATION_LOOP/WHOLE_NAVIGATION/__proxy__::/SM_ROOT/NAVIGATION_LOOP/WHOLE_NAVIGATION/WAIT_FOR_GOAL">
<path fill="none" stroke="black" stroke-width="2" d="M346,-310.868C346,-298.217 346,-278.686 346,-262.608"/>
<polygon fill="black" stroke="black" stroke-width="2" points="349.5,-262.157 346,-252.157 342.5,-262.157 349.5,-262.157"/>
</a>
</g>
</g>
<!-- /SM_ROOT/NAVIGATION_LOOP/WHOLE_NAVIGATION:preempted -->
<g id="node8" class="node"><title>/SM_ROOT/NAVIGATION_LOOP/WHOLE_NAVIGATION:preempted</title>
<g id="a_node8"><a xlink:href="/SM_ROOT/NAVIGATION_LOOP/WHOLE_NAVIGATION:preempted" xlink:title="preempted">
<path fill="#fe464f" stroke="#780006" d="M384.667,-54C384.667,-54 333.333,-54 333.333,-54 329.667,-54 326,-50.3333 326,-46.6667 326,-46.6667 326,-39.3333 326,-39.3333 326,-35.6667 329.667,-32 333.333,-32 333.333,-32 384.667,-32 384.667,-32 388.333,-32 392,-35.6667 392,-39.3333 392,-39.3333 392,-46.6667 392,-46.6667 392,-50.3333 388.333,-54 384.667,-54"/>
<text text-anchor="middle" x="359" y="-39.9" font-family="Times,serif" font-size="12.00" fill="#780006">preempted</text>
</a>
</g>
</g>
<!-- /SM_ROOT/NAVIGATION_LOOP/WHOLE_NAVIGATION:aborted -->
<g id="node9" class="node"><title>/SM_ROOT/NAVIGATION_LOOP/WHOLE_NAVIGATION:aborted</title>
<g id="a_node9"><a xlink:href="/SM_ROOT/NAVIGATION_LOOP/WHOLE_NAVIGATION:aborted" xlink:title="aborted">
<path fill="#fe464f" stroke="#780006" d="M474.667,-54C474.667,-54 435.333,-54 435.333,-54 431.667,-54 428,-50.3333 428,-46.6667 428,-46.6667 428,-39.3333 428,-39.3333 428,-35.6667 431.667,-32 435.333,-32 435.333,-32 474.667,-32 474.667,-32 478.333,-32 482,-35.6667 482,-39.3333 482,-39.3333 482,-46.6667 482,-46.6667 482,-50.3333 478.333,-54 474.667,-54"/>
<text text-anchor="middle" x="455" y="-39.9" font-family="Times,serif" font-size="12.00" fill="#780006">aborted</text>
</a>
</g>
</g>
<!-- /SM_ROOT/NAVIGATION_LOOP/WHOLE_NAVIGATION:succeeded -->
<g id="node10" class="node"><title>/SM_ROOT/NAVIGATION_LOOP/WHOLE_NAVIGATION:succeeded</title>
<g id="a_node10"><a xlink:href="/SM_ROOT/NAVIGATION_LOOP/WHOLE_NAVIGATION:succeeded" xlink:title="succeeded">
<path fill="#fe464f" stroke="#780006" d="M576.167,-54C576.167,-54 525.833,-54 525.833,-54 522.167,-54 518.5,-50.3333 518.5,-46.6667 518.5,-46.6667 518.5,-39.3333 518.5,-39.3333 518.5,-35.6667 522.167,-32 525.833,-32 525.833,-32 576.167,-32 576.167,-32 579.833,-32 583.5,-35.6667 583.5,-39.3333 583.5,-39.3333 583.5,-46.6667 583.5,-46.6667 583.5,-50.3333 579.833,-54 576.167,-54"/>
<text text-anchor="middle" x="551" y="-39.9" font-family="Times,serif" font-size="12.00" fill="#780006">succeeded</text>
</a>
</g>
</g>
<!-- /SM_ROOT/NAVIGATION_LOOP/WHOLE_NAVIGATION:charging -->
<g id="node11" class="node"><title>/SM_ROOT/NAVIGATION_LOOP/WHOLE_NAVIGATION:charging</title>
<g id="a_node11"><a xlink:href="/SM_ROOT/NAVIGATION_LOOP/WHOLE_NAVIGATION:charging" xlink:title="charging">
<path fill="#fe464f" stroke="#780006" d="M282.667,-54C282.667,-54 239.333,-54 239.333,-54 235.667,-54 232,-50.3333 232,-46.6667 232,-46.6667 232,-39.3333 232,-39.3333 232,-35.6667 235.667,-32 239.333,-32 239.333,-32 282.667,-32 282.667,-32 286.333,-32 290,-35.6667 290,-39.3333 290,-39.3333 290,-46.6667 290,-46.6667 290,-50.3333 286.333,-54 282.667,-54"/>
<text text-anchor="middle" x="261" y="-39.9" font-family="Times,serif" font-size="12.00" fill="#780006">charging</text>
</a>
</g>
</g>
<!-- /SM_ROOT/NAVIGATION_LOOP/WHOLE_NAVIGATION/WAIT_FOR_GOAL&#45;&gt;/SM_ROOT/NAVIGATION_LOOP/WHOLE_NAVIGATION:preempted -->
<g id="edge2" class="edge"><title>/SM_ROOT/NAVIGATION_LOOP/WHOLE_NAVIGATION/WAIT_FOR_GOAL&#45;&gt;/SM_ROOT/NAVIGATION_LOOP/WHOLE_NAVIGATION:preempted</title>
<g id="a_edge2"><a xlink:href="/SM_ROOT/NAVIGATION_LOOP/WHOLE_NAVIGATION/WAIT_FOR_GOAL:preempted:/SM_ROOT/NAVIGATION_LOOP/WHOLE_NAVIGATION/preempted" xlink:title="preempted">
<path fill="none" stroke="#000000" stroke-width="2" stroke-opacity="0.333333" d="M341.35,-215.801C335.689,-192.403 327.628,-149.294 334,-113 337.02,-95.7997 343.972,-77.2384 349.781,-63.704"/>
<polygon fill="#000000" fill-opacity="0.333333" stroke="#000000" stroke-width="2" stroke-opacity="0.333333" points="353.036,-64.9981 353.916,-54.4398 346.644,-62.1451 353.036,-64.9981"/>
</a>
</g>
<g id="a_edge2&#45;label"><a xlink:href="/SM_ROOT/NAVIGATION_LOOP/WHOLE_NAVIGATION/WAIT_FOR_GOAL:preempted:/SM_ROOT/NAVIGATION_LOOP/WHOLE_NAVIGATION/preempted" xlink:title="preempted">
<text text-anchor="middle" x="359" y="-131.9" font-family="Times,serif" font-size="12.00">preempted</text>
</a>
</g>
</g>
<!-- /SM_ROOT/NAVIGATION_LOOP/WHOLE_NAVIGATION/NAVIGATION/__proxy__ -->
<g id="node13" class="node"><title>/SM_ROOT/NAVIGATION_LOOP/WHOLE_NAVIGATION/NAVIGATION/__proxy__</title>
<g id="a_node13"><a xlink:href="/SM_ROOT/NAVIGATION_LOOP/WHOLE_NAVIGATION/NAVIGATION" xlink:title="NAVIGATION">
<text text-anchor="middle" x="466" y="-130.6" font-family="Times,serif" font-size="18.00">NAVIGATION</text>
</a>
</g>
</g>
<!-- /SM_ROOT/NAVIGATION_LOOP/WHOLE_NAVIGATION/WAIT_FOR_GOAL&#45;&gt;/SM_ROOT/NAVIGATION_LOOP/WHOLE_NAVIGATION/NAVIGATION/__proxy__ -->
<g id="edge1" class="edge"><title>/SM_ROOT/NAVIGATION_LOOP/WHOLE_NAVIGATION/WAIT_FOR_GOAL&#45;&gt;/SM_ROOT/NAVIGATION_LOOP/WHOLE_NAVIGATION/NAVIGATION/__proxy__</title>
<g id="a_edge1"><a xlink:href="/SM_ROOT/NAVIGATION_LOOP/WHOLE_NAVIGATION/WAIT_FOR_GOAL:received_goal:/SM_ROOT/NAVIGATION_LOOP/WHOLE_NAVIGATION/NAVIGATION" xlink:title="received_goal">
<path fill="none" stroke="black" stroke-width="2" d="M366.629,-216.325C384.741,-201.685 411.422,-180.117 432.578,-163.016"/>
<polygon fill="black" stroke="black" stroke-width="2" points="434.81,-165.713 440.386,-156.704 430.409,-160.269 434.81,-165.713"/>
</a>
</g>
<g id="a_edge1&#45;label"><a xlink:href="/SM_ROOT/NAVIGATION_LOOP/WHOLE_NAVIGATION/WAIT_FOR_GOAL:received_goal:/SM_ROOT/NAVIGATION_LOOP/WHOLE_NAVIGATION/NAVIGATION" xlink:title="received_goal">
<text text-anchor="middle" x="460.0" y="-179.4" font-family="Times,serif" font-size="15.00">received_goal</text>
</a>
</g>
</g>
<!-- /SM_ROOT/NAVIGATION_LOOP/WHOLE_NAVIGATION/NAVIGATION/__proxy__&#45;&gt;/SM_ROOT/NAVIGATION_LOOP/WHOLE_NAVIGATION:preempted -->
<g id="edge3" class="edge"><title>/SM_ROOT/NAVIGATION_LOOP/WHOLE_NAVIGATION/NAVIGATION/__proxy__&#45;&gt;/SM_ROOT/NAVIGATION_LOOP/WHOLE_NAVIGATION:preempted</title>
<g id="a_edge3"><a xlink:href="/SM_ROOT/NAVIGATION_LOOP/WHOLE_NAVIGATION/NAVIGATION:preempted:/SM_ROOT/NAVIGATION_LOOP/WHOLE_NAVIGATION/preempted" xlink:title="preempted">
<path fill="none" stroke="#000000" stroke-width="2" stroke-opacity="0.333333" d="M425.196,-113.369C415.792,-107.722 406.163,-101.161 398,-94 387.608,-84.8848 378.028,-72.6828 370.963,-62.6148"/>
<polygon fill="#000000" fill-opacity="0.333333" stroke="#000000" stroke-width="2" stroke-opacity="0.333333" points="373.726,-60.4509 365.231,-54.1184 367.923,-64.3657 373.726,-60.4509"/>
</a>
</g>
<g id="a_edge3&#45;label"><a xlink:href="/SM_ROOT/NAVIGATION_LOOP/WHOLE_NAVIGATION/NAVIGATION:preempted:/SM_ROOT/NAVIGATION_LOOP/WHOLE_NAVIGATION/preempted" xlink:title="preempted">
<text text-anchor="middle" x="423" y="-84.4" font-family="Times,serif" font-size="12.00">preempted</text>
</a>
</g>
</g>
<!-- /SM_ROOT/NAVIGATION_LOOP/WHOLE_NAVIGATION/NAVIGATION/__proxy__&#45;&gt;/SM_ROOT/NAVIGATION_LOOP/WHOLE_NAVIGATION:aborted -->
<g id="edge4" class="edge"><title>/SM_ROOT/NAVIGATION_LOOP/WHOLE_NAVIGATION/NAVIGATION/__proxy__&#45;&gt;/SM_ROOT/NAVIGATION_LOOP/WHOLE_NAVIGATION:aborted</title>
<g id="a_edge4"><a xlink:href="/SM_ROOT/NAVIGATION_LOOP/WHOLE_NAVIGATION/NAVIGATION:aborted:/SM_ROOT/NAVIGATION_LOOP/WHOLE_NAVIGATION/aborted" xlink:title="aborted">
<path fill="none" stroke="#000000" stroke-width="2" stroke-opacity="0.333333" d="M461.997,-113.295C460.904,-107.107 459.801,-100.294 459,-94 457.766,-84.2964 456.844,-73.4818 456.199,-64.3995"/>
<polygon fill="#000000" fill-opacity="0.333333" stroke="#000000" stroke-width="2" stroke-opacity="0.333333" points="459.689,-64.1228 455.546,-54.3712 452.703,-64.5775 459.689,-64.1228"/>
</a>
</g>
<g id="a_edge4&#45;label"><a xlink:href="/SM_ROOT/NAVIGATION_LOOP/WHOLE_NAVIGATION/NAVIGATION:aborted:/SM_ROOT/NAVIGATION_LOOP/WHOLE_NAVIGATION/aborted" xlink:title="aborted">
<text text-anchor="middle" x="477" y="-84.4" font-family="Times,serif" font-size="12.00">aborted</text>
</a>
</g>
</g>
<!-- /SM_ROOT/NAVIGATION_LOOP/WHOLE_NAVIGATION/NAVIGATION/__proxy__&#45;&gt;/SM_ROOT/NAVIGATION_LOOP/WHOLE_NAVIGATION:succeeded -->
<g id="edge5" class="edge"><title>/SM_ROOT/NAVIGATION_LOOP/WHOLE_NAVIGATION/NAVIGATION/__proxy__&#45;&gt;/SM_ROOT/NAVIGATION_LOOP/WHOLE_NAVIGATION:succeeded</title>
<g id="a_edge5"><a xlink:href="/SM_ROOT/NAVIGATION_LOOP/WHOLE_NAVIGATION/NAVIGATION:succeeded:/SM_ROOT/NAVIGATION_LOOP/WHOLE_NAVIGATION/succeeded" xlink:title="succeeded">
<path fill="none" stroke="#000000" stroke-width="2" stroke-opacity="1.0" d="M485.734,-113.105C500.509,-97.4607 520.493,-76.302 534.44,-61.5342"/>
<polygon fill="#000000" fill-opacity="1.0" stroke="#000000" stroke-width="2" stroke-opacity="1.0" points="536.992,-63.929 541.314,-54.2557 531.903,-59.1226 536.992,-63.929"/>
</a>
</g>
<g id="a_edge5&#45;label"><a xlink:href="/SM_ROOT/NAVIGATION_LOOP/WHOLE_NAVIGATION/NAVIGATION:succeeded:/SM_ROOT/NAVIGATION_LOOP/WHOLE_NAVIGATION/succeeded" xlink:title="succeeded">
<text text-anchor="middle" x="548.0" y="-84.4" font-family="Times,serif" font-size="15.00">succeeded</text>
</a>
</g>
</g>
</g>
</svg>
